<?xml version="1.0" encoding="UTF-8" standalone="no"?>
<svg width="612.069mm" height="52.9167mm"
 xmlns="http://www.w3.org/2000/svg" xmlns:xlink="http://www.w3.org/1999/xlink"  version="1.2" baseProfile="tiny">
<title>Qt SVG Document</title>
<desc>Generated with Qt</desc>
<defs>
</defs>
<g fill="none" stroke="black" stroke-width="1" fill-rule="evenodd" stroke-linecap="square" stroke-linejoin="bevel" >

<g fill="none" stroke="#000000" stroke-opacity="1" stroke-width="1" stroke-linecap="square" stroke-linejoin="bevel" transform="matrix(1,0,0,1,0,0)"
font-family="Sans Serif" font-size="9" font-weight="400" font-style="normal" 
>
</g>

<g fill="none" stroke="#000000" stroke-opacity="1" stroke-width="1" stroke-linecap="square" stroke-linejoin="bevel" transform="matrix(1,0,0,1,0,0)"
font-family="Sans Serif" font-size="9" font-weight="400" font-style="normal" 
>
</g>

<g fill="none" stroke="#000000" stroke-opacity="1" stroke-width="1" stroke-linecap="square" stroke-linejoin="bevel" transform="matrix(2,0,0,2,0.0024,150)"
font-family="Sans Serif" font-size="9" font-weight="400" font-style="normal" 
>
</g>

<g fill="#ffffff" fill-opacity="1" stroke="none" transform="matrix(2,0,0,2,0.0024,150)"
font-family="Sans Serif" font-size="9" font-weight="400" font-style="normal" 
>
<rect x="-0.0012" y="-75" width="867.352" height="75"/>
</g>

<g fill="none" stroke="#000000" stroke-opacity="1" stroke-width="1" stroke-linecap="square" stroke-linejoin="bevel" transform="matrix(2,0,0,2,0.0024,150)"
font-family="Sans Serif" font-size="9" font-weight="400" font-style="normal" 
>
</g>

<g fill="none" stroke="#000000" stroke-opacity="1" stroke-width="1" stroke-linecap="square" stroke-linejoin="bevel" transform="matrix(2,0,0,2,0.0024,150)"
font-family="Sans Serif" font-size="9" font-weight="400" font-style="normal" 
>
</g>

<g fill="none" stroke="#000000" stroke-opacity="1" stroke-width="1" stroke-linecap="square" stroke-linejoin="bevel" transform="matrix(2,0,0,2,0.0024,150)"
font-family="Sans Serif" font-size="9" font-weight="400" font-style="normal" 
>
</g>

<g fill="none" stroke="#000000" stroke-opacity="1" stroke-width="1" stroke-linecap="square" stroke-linejoin="bevel" transform="matrix(2,0,0,2,0.0024,150)"
font-family="Sans Serif" font-size="9" font-weight="400" font-style="normal" 
>
</g>

<g fill="none" stroke="#000000" stroke-opacity="1" stroke-width="1" stroke-linecap="square" stroke-linejoin="round" transform="matrix(2,0,0,2,0.0024,150)"
font-family="Sans Serif" font-size="9" font-weight="400" font-style="normal" 
>
<ellipse cx="116.34" cy="-51" rx="115.841" ry="17.5"/>
</g>

<g fill="none" stroke="#000000" stroke-opacity="1" stroke-width="1" stroke-linecap="square" stroke-linejoin="bevel" transform="matrix(2,0,0,2,0.0024,150)"
font-family="Sans Serif" font-size="9" font-weight="400" font-style="normal" 
>
</g>

<g fill="none" stroke="#000000" stroke-opacity="1" stroke-width="1" stroke-linecap="square" stroke-linejoin="bevel" transform="matrix(2,0,0,2,67.5262,35)"
font-family="Sans Serif" font-size="9" font-weight="400" font-style="normal" 
>
</g>

<g fill="none" stroke="#000000" stroke-opacity="1" stroke-width="1" stroke-linecap="square" stroke-linejoin="bevel" transform="matrix(2,0,0,2,67.5262,35)"
font-family="sans" font-size="11" font-weight="100" font-style="normal" 
>
</g>

<g fill="#000000" fill-opacity="1" stroke="#000000" stroke-opacity="1" stroke-width="1" stroke-linecap="square" stroke-linejoin="round" transform="matrix(2,0,0,2,67.5262,35)"
font-family="sans" font-size="11" font-weight="100" font-style="normal" 
>
<path vector-effect="none" fill-rule="nonzero" d="M2.96875,1.98438 L3.53125,1.98438 L0.734375,11.0156 L0.171875,11.0156 L2.96875,1.98438 M5.4375,8.64062 L5.4375,12.2812 L4.95312,12.2812 L4.95312,3.98438 L5.4375,3.98438 L5.4375,5.35938 C5.66667,4.83854 5.91146,4.47917 6.17188,4.28125 C6.57812,3.98958 6.96354,3.84375 7.32812,3.84375 C8.03646,3.84375 8.6276,4.13281 9.10156,4.71094 C9.57552,5.28906 9.8125,6.05208 9.8125,7 C9.8125,7.94792 9.57552,8.71094 9.10156,9.28906 C8.6276,9.86719 8.03646,10.1562 7.32812,10.1562 C6.96354,10.1562 6.57812,10.0052 6.17188,9.70312 C5.91146,9.51562 5.66667,9.16146 5.4375,8.64062 M8.67188,9.09375 C9.08854,8.67708 9.29688,7.97917 9.29688,7 C9.29688,6.02083 9.08854,5.32292 8.67188,4.90625 C8.25521,4.48958 7.81771,4.28125 7.35938,4.28125 C6.91146,4.28125 6.47917,4.48958 6.0625,4.90625 C5.65625,5.32292 5.45312,6.02083 5.45312,7 C5.45312,7.97917 5.65625,8.67708 6.0625,9.09375 C6.47917,9.51042 6.91146,9.71875 7.35938,9.71875 C7.81771,9.71875 8.25521,9.51042 8.67188,9.09375 M11.9219,1.64062 L12.4062,1.64062 L12.4062,10 L11.9219,10 L11.9219,1.64062 M17.375,6.60938 C16.5729,6.60938 15.9974,6.75 15.6484,7.03125 C15.2995,7.3125 15.125,7.72396 15.125,8.26562 C15.125,8.79688 15.2708,9.17448 15.5625,9.39844 C15.8542,9.6224 16.1979,9.73438 16.5938,9.73438 C17.3438,9.73438 17.8854,9.41667 18.2188,8.78125 C18.5521,8.13542 18.7188,7.53125 18.7188,6.96875 L18.7188,6.60938 L17.375,6.60938 M19.2188,6.5625 L19.2188,10 L18.7188,10 L18.7188,8.35938 C18.4479,9.16146 18.0833,9.67188 17.625,9.89062 C17.2708,10.0677 16.9115,10.1562 16.5469,10.1562 C15.9531,10.1562 15.4844,9.99479 15.1406,9.67188 C14.7969,9.34896 14.625,8.8776 14.625,8.25781 C14.625,7.63802 14.849,7.14062 15.2969,6.76562 C15.7448,6.39062 16.474,6.20312 17.4844,6.20312 L18.7188,6.20312 L18.7188,6.10938 C18.7188,5.57812 18.5625,5.14062 18.25,4.79688 C17.9583,4.45312 17.4635,4.28125 16.7656,4.28125 C16.4219,4.28125 16.0729,4.34375 15.7188,4.46875 C15.4896,4.55208 15.1875,4.71875 14.8125,4.96875 L14.8125,4.4375 C15.1354,4.23958 15.4375,4.09896 15.7188,4.01562 C16.1146,3.90104 16.4948,3.84375 16.8594,3.84375 C17.5781,3.84375 18.1667,4.05729 18.625,4.48438 C19.0208,4.84896 19.2188,5.54167 19.2188,6.5625 M23.7344,10.5625 C23.5156,11.0938 23.2812,11.4635 23.0312,11.6719 C22.6979,11.9427 22.375,12.0781 22.0625,12.0781 L21.3281,12.0781 L21.3281,11.6562 L21.9531,11.6562 C22.2135,11.6562 22.4427,11.5729 22.6406,11.4062 C22.8906,11.1875 23.099,10.8698 23.2656,10.4531 L23.4375,10 L21.0469,3.98438 L21.5781,3.98438 L23.7031,9.34375 L25.8438,3.98438 L26.375,3.98438 L23.7344,10.5625 M32.5625,12.1719 L32.5625,12.5938 L26.8438,12.5938 L26.8438,12.1719 L32.5625,12.1719 M34.0938,9.5625 L35.8594,9.5625 L35.8594,2.46875 L33.6562,3.35938 L33.6562,2.85938 L35.8438,1.98438 L36.3906,1.98438 L36.3906,9.5625 L38.1719,9.5625 L38.1719,10 L34.0938,10 L34.0938,9.5625 M40.8438,1.98438 L44.6406,1.98438 L44.6406,2.42188 L41.375,2.42188 L41.375,5.10938 C41.5417,5.04688 41.7031,5 41.8594,4.96875 C42.0156,4.9375 42.2448,4.92188 42.5469,4.92188 C43.3698,4.92188 44.0208,5.15104 44.5,5.60938 C44.9792,6.05729 45.2188,6.66146 45.2188,7.42188 C45.2188,8.28646 44.9688,8.95833 44.4688,9.4375 C43.9792,9.91667 43.2865,10.1562 42.3906,10.1562 C42.099,10.1562 41.7969,10.1302 41.4844,10.0781 C41.1719,10.026 40.849,9.95312 40.5156,9.85938 L40.5156,9.3125 C40.7969,9.4375 41.0885,9.53646 41.3906,9.60938 C41.6927,9.67188 42.0104,9.70312 42.3438,9.70312 C43.0521,9.70312 43.6198,9.5 44.0469,9.09375 C44.474,8.6875 44.6875,8.13021 44.6875,7.42188 C44.6875,6.78646 44.4792,6.28646 44.0625,5.92188 C43.6458,5.54688 43.0833,5.35938 42.375,5.35938 C42.2292,5.35938 42.0104,5.40104 41.7188,5.48438 C41.4375,5.55729 41.1458,5.67708 40.8438,5.84375 L40.8438,1.98438 M47.75,9.5625 L52.3125,9.5625 L52.3125,10 L47.1875,10 L47.1875,9.4375 L49.1875,7.35938 C49.6771,6.85938 50.125,6.39583 50.5312,5.96875 C50.8958,5.57292 51.1406,5.26562 51.2656,5.04688 C51.3906,4.82812 51.4531,4.53646 51.4531,4.17188 C51.4531,3.55729 51.2656,3.0625 50.8906,2.6875 C50.6198,2.41667 50.1771,2.28125 49.5625,2.28125 C49.1979,2.28125 48.7865,2.38542 48.3281,2.59375 C48.1198,2.6875 47.7708,2.89062 47.2812,3.20312 L47.2812,2.64062 C47.4896,2.49479 47.7917,2.32812 48.1875,2.14062 C48.6458,1.94271 49.099,1.83854 49.5469,1.82812 C50.2344,1.82812 50.8125,2.01042 51.2812,2.375 C51.7396,2.72917 51.9688,3.3125 51.9688,4.125 C51.9688,4.45833 51.9062,4.77083 51.7812,5.0625 C51.6354,5.40625 51.4115,5.75521 51.1094,6.10938 C51.0156,6.21354 50.7292,6.51042 50.25,7 L47.75,9.5625 M57.8281,2.28125 L54.5,7.4375 L57.8281,7.4375 L57.8281,2.28125 M57.4062,1.98438 L58.375,1.98438 L58.375,7.4375 L59.5312,7.4375 L59.5312,7.875 L58.375,7.875 L58.375,10 L57.8281,10 L57.8281,7.875 L53.9375,7.875 L53.9375,7.3125 L57.4062,1.98438 M61.7188,9.5625 L66.2812,9.5625 L66.2812,10 L61.1562,10 L61.1562,9.4375 L63.1562,7.35938 C63.6458,6.85938 64.0938,6.39583 64.5,5.96875 C64.8646,5.57292 65.1094,5.26562 65.2344,5.04688 C65.3594,4.82812 65.4219,4.53646 65.4219,4.17188 C65.4219,3.55729 65.2344,3.0625 64.8594,2.6875 C64.5885,2.41667 64.1458,2.28125 63.5312,2.28125 C63.1667,2.28125 62.7552,2.38542 62.2969,2.59375 C62.0885,2.6875 61.7396,2.89062 61.25,3.20312 L61.25,2.64062 C61.4583,2.49479 61.7604,2.32812 62.1562,2.14062 C62.6146,1.94271 63.0677,1.83854 63.5156,1.82812 C64.2031,1.82812 64.7812,2.01042 65.25,2.375 C65.7083,2.72917 65.9375,3.3125 65.9375,4.125 C65.9375,4.45833 65.875,4.77083 65.75,5.0625 C65.6042,5.40625 65.3802,5.75521 65.0781,6.10938 C64.9844,6.21354 64.6979,6.51042 64.2188,7 L61.7188,9.5625 M68.7812,1.98438 L72.5781,1.98438 L72.5781,2.42188 L69.3125,2.42188 L69.3125,5.10938 C69.4792,5.04688 69.6406,5 69.7969,4.96875 C69.9531,4.9375 70.1823,4.92188 70.4844,4.92188 C71.3073,4.92188 71.9583,5.15104 72.4375,5.60938 C72.9167,6.05729 73.1562,6.66146 73.1562,7.42188 C73.1562,8.28646 72.9062,8.95833 72.4062,9.4375 C71.9167,9.91667 71.224,10.1562 70.3281,10.1562 C70.0365,10.1562 69.7344,10.1302 69.4219,10.0781 C69.1094,10.026 68.7865,9.95312 68.4531,9.85938 L68.4531,9.3125 C68.7344,9.4375 69.026,9.53646 69.3281,9.60938 C69.6302,9.67188 69.9479,9.70312 70.2812,9.70312 C70.9896,9.70312 71.5573,9.5 71.9844,9.09375 C72.4115,8.6875 72.625,8.13021 72.625,7.42188 C72.625,6.78646 72.4167,6.28646 72,5.92188 C71.5833,5.54688 71.0208,5.35938 70.3125,5.35938 C70.1667,5.35938 69.9479,5.40104 69.6562,5.48438 C69.375,5.55729 69.0833,5.67708 68.7812,5.84375 L68.7812,1.98438 M78.7812,2.28125 L75.4531,7.4375 L78.7812,7.4375 L78.7812,2.28125 M78.3594,1.98438 L79.3281,1.98438 L79.3281,7.4375 L80.4844,7.4375 L80.4844,7.875 L79.3281,7.875 L79.3281,10 L78.7812,10 L78.7812,7.875 L74.8906,7.875 L74.8906,7.3125 L78.3594,1.98438 M82.75,1.98438 L86.5469,1.98438 L86.5469,2.42188 L83.2812,2.42188 L83.2812,5.10938 C83.4479,5.04688 83.6094,5 83.7656,4.96875 C83.9219,4.9375 84.151,4.92188 84.4531,4.92188 C85.276,4.92188 85.9271,5.15104 86.4062,5.60938 C86.8854,6.05729 87.125,6.66146 87.125,7.42188 C87.125,8.28646 86.875,8.95833 86.375,9.4375 C85.8854,9.91667 85.1927,10.1562 84.2969,10.1562 C84.0052,10.1562 83.7031,10.1302 83.3906,10.0781 C83.0781,10.026 82.7552,9.95312 82.4219,9.85938 L82.4219,9.3125 C82.7031,9.4375 82.9948,9.53646 83.2969,9.60938 C83.599,9.67188 83.9167,9.70312 84.25,9.70312 C84.9583,9.70312 85.526,9.5 85.9531,9.09375 C86.3802,8.6875 86.5938,8.13021 86.5938,7.42188 C86.5938,6.78646 86.3854,6.28646 85.9688,5.92188 C85.5521,5.54688 84.9896,5.35938 84.2812,5.35938 C84.1354,5.35938 83.9167,5.40104 83.625,5.48438 C83.3438,5.55729 83.0521,5.67708 82.75,5.84375 L82.75,1.98438 M89.8125,9.82812 L89.8125,9.26562 C90.0625,9.41146 90.3125,9.52604 90.5625,9.60938 C90.8125,9.68229 91.0625,9.71875 91.3125,9.71875 C92.375,9.71875 93.1198,9.19792 93.5469,8.15625 C93.7448,7.67708 93.8333,6.86979 93.8125,5.73438 C93.6354,6.13021 93.4062,6.4375 93.125,6.65625 C92.7604,6.94792 92.3021,7.09375 91.75,7.09375 C91.0729,7.09375 90.5104,6.85417 90.0625,6.375 C89.6146,5.90625 89.3906,5.30208 89.3906,4.5625 C89.3906,3.73958 89.6094,3.07812 90.0469,2.57812 C90.4948,2.07812 91.0677,1.82812 91.7656,1.82812 C92.6094,1.82812 93.2552,2.1875 93.7031,2.90625 C94.151,3.61458 94.375,4.64583 94.375,6 C94.375,7.4375 94.099,8.48958 93.5469,9.15625 C93.0052,9.82292 92.2708,10.1562 91.3438,10.1562 C91.0938,10.1562 90.8438,10.1302 90.5938,10.0781 C90.3438,10.026 90.0833,9.94271 89.8125,9.82812 M90.4531,6.05469 C90.7865,6.44531 91.237,6.64062 91.8047,6.64062 C92.3724,6.64062 92.8229,6.44531 93.1562,6.05469 C93.4896,5.66406 93.6562,5.13021 93.6562,4.45312 C93.6562,3.77604 93.4896,3.24219 93.1562,2.85156 C92.8229,2.46094 92.3724,2.26562 91.8047,2.26562 C91.237,2.26562 90.7865,2.46094 90.4531,2.85156 C90.1198,3.24219 89.9531,3.77604 89.9531,4.45312 C89.9531,5.13021 90.1198,5.66406 90.4531,6.05469 M98.7812,2.28125 C98.125,2.28125 97.6354,2.59896 97.3125,3.23438 C97,3.86979 96.8438,4.78906 96.8438,5.99219 C96.8438,7.19531 97,8.11979 97.3125,8.76562 C97.6354,9.40104 98.125,9.71875 98.7812,9.71875 C99.4583,9.71875 99.9531,9.40104 100.266,8.76562 C100.589,8.11979 100.75,7.19531 100.75,5.99219 C100.75,4.78906 100.589,3.86979 100.266,3.23438 C99.9531,2.59896 99.4583,2.28125 98.7812,2.28125 M98.7812,1.82812 C99.5521,1.82812 100.161,2.14583 100.609,2.78125 C101.068,3.41667 101.297,4.48958 101.297,6 C101.297,7.51042 101.068,8.58333 100.609,9.21875 C100.161,9.84375 99.5521,10.1562 98.7812,10.1562 C98.0312,10.1562 97.4271,9.84375 96.9688,9.21875 C96.5208,8.58333 96.2969,7.51042 96.2969,6 C96.2969,4.48958 96.5208,3.41667 96.9688,2.78125 C97.4271,2.14583 98.0312,1.82812 98.7812,1.82812 M103.938,9.5625 L105.703,9.5625 L105.703,2.46875 L103.5,3.35938 L103.5,2.85938 L105.688,1.98438 L106.234,1.98438 L106.234,9.5625 L108.016,9.5625 L108.016,10 L103.938,10 L103.938,9.5625 M112.781,6 C112.177,6 111.703,6.16667 111.359,6.5 C111.026,6.83333 110.859,7.28906 110.859,7.86719 C110.859,8.44531 111.026,8.90104 111.359,9.23438 C111.703,9.56771 112.174,9.73438 112.773,9.73438 C113.372,9.73438 113.844,9.56771 114.188,9.23438 C114.542,8.90104 114.719,8.44792 114.719,7.875 C114.719,7.29167 114.547,6.83333 114.203,6.5 C113.859,6.16667 113.385,6 112.781,6 M111.688,5.73438 C111.344,5.59896 111.062,5.38021 110.844,5.07812 C110.604,4.76562 110.484,4.38021 110.484,3.92188 C110.484,3.27604 110.69,2.76562 111.102,2.39062 C111.513,2.01562 112.073,1.82812 112.781,1.82812 C113.49,1.82812 114.047,2.01562 114.453,2.39062 C114.859,2.76562 115.062,3.27604 115.062,3.92188 C115.062,4.39062 114.948,4.77604 114.719,5.07812 C114.479,5.39062 114.198,5.60938 113.875,5.73438 C114.271,5.85938 114.594,6.09375 114.844,6.4375 C115.104,6.79167 115.234,7.22917 115.234,7.75 C115.234,8.52083 115.026,9.11458 114.609,9.53125 C114.182,9.94792 113.573,10.1562 112.781,10.1562 C111.99,10.1562 111.38,9.94792 110.953,9.53125 C110.526,9.11458 110.312,8.52083 110.312,7.75 C110.312,7.22917 110.443,6.79167 110.703,6.4375 C110.995,6.08333 111.323,5.84896 111.688,5.73438 M111.492,2.71094 C111.185,2.9974 111.031,3.40104 111.031,3.92188 C111.031,4.44271 111.185,4.84896 111.492,5.14062 C111.799,5.43229 112.229,5.57812 112.781,5.57812 C113.323,5.57812 113.75,5.43229 114.062,5.14062 C114.375,4.84896 114.531,4.44271 114.531,3.92188 C114.531,3.40104 114.375,3 114.062,2.71875 C113.75,2.42708 113.323,2.28125 112.781,2.28125 C112.229,2.28125 111.799,2.42448 111.492,2.71094 M119.766,6 C119.161,6 118.688,6.16667 118.344,6.5 C118.01,6.83333 117.844,7.28906 117.844,7.86719 C117.844,8.44531 118.01,8.90104 118.344,9.23438 C118.688,9.56771 119.159,9.73438 119.758,9.73438 C120.357,9.73438 120.828,9.56771 121.172,9.23438 C121.526,8.90104 121.703,8.44792 121.703,7.875 C121.703,7.29167 121.531,6.83333 121.188,6.5 C120.844,6.16667 120.37,6 119.766,6 M118.672,5.73438 C118.328,5.59896 118.047,5.38021 117.828,5.07812 C117.589,4.76562 117.469,4.38021 117.469,3.92188 C117.469,3.27604 117.674,2.76562 118.086,2.39062 C118.497,2.01562 119.057,1.82812 119.766,1.82812 C120.474,1.82812 121.031,2.01562 121.438,2.39062 C121.844,2.76562 122.047,3.27604 122.047,3.92188 C122.047,4.39062 121.932,4.77604 121.703,5.07812 C121.464,5.39062 121.182,5.60938 120.859,5.73438 C121.255,5.85938 121.578,6.09375 121.828,6.4375 C122.089,6.79167 122.219,7.22917 122.219,7.75 C122.219,8.52083 122.01,9.11458 121.594,9.53125 C121.167,9.94792 120.557,10.1562 119.766,10.1562 C118.974,10.1562 118.365,9.94792 117.938,9.53125 C117.51,9.11458 117.297,8.52083 117.297,7.75 C117.297,7.22917 117.427,6.79167 117.688,6.4375 C117.979,6.08333 118.307,5.84896 118.672,5.73438 M118.477,2.71094 C118.169,2.9974 118.016,3.40104 118.016,3.92188 C118.016,4.44271 118.169,4.84896 118.477,5.14062 C118.784,5.43229 119.214,5.57812 119.766,5.57812 C120.307,5.57812 120.734,5.43229 121.047,5.14062 C121.359,4.84896 121.516,4.44271 121.516,3.92188 C121.516,3.40104 121.359,3 121.047,2.71875 C120.734,2.42708 120.307,2.28125 119.766,2.28125 C119.214,2.28125 118.784,2.42448 118.477,2.71094 M124.891,9.5625 L126.656,9.5625 L126.656,2.46875 L124.453,3.35938 L124.453,2.85938 L126.641,1.98438 L127.188,1.98438 L127.188,9.5625 L128.969,9.5625 L128.969,10 L124.891,10 L124.891,9.5625 M131.719,9.82812 L131.719,9.26562 C131.969,9.41146 132.219,9.52604 132.469,9.60938 C132.719,9.68229 132.969,9.71875 133.219,9.71875 C134.281,9.71875 135.026,9.19792 135.453,8.15625 C135.651,7.67708 135.74,6.86979 135.719,5.73438 C135.542,6.13021 135.312,6.4375 135.031,6.65625 C134.667,6.94792 134.208,7.09375 133.656,7.09375 C132.979,7.09375 132.417,6.85417 131.969,6.375 C131.521,5.90625 131.297,5.30208 131.297,4.5625 C131.297,3.73958 131.516,3.07812 131.953,2.57812 C132.401,2.07812 132.974,1.82812 133.672,1.82812 C134.516,1.82812 135.161,2.1875 135.609,2.90625 C136.057,3.61458 136.281,4.64583 136.281,6 C136.281,7.4375 136.005,8.48958 135.453,9.15625 C134.911,9.82292 134.177,10.1562 133.25,10.1562 C133,10.1562 132.75,10.1302 132.5,10.0781 C132.25,10.026 131.99,9.94271 131.719,9.82812 M132.359,6.05469 C132.693,6.44531 133.143,6.64062 133.711,6.64062 C134.279,6.64062 134.729,6.44531 135.062,6.05469 C135.396,5.66406 135.562,5.13021 135.562,4.45312 C135.562,3.77604 135.396,3.24219 135.062,2.85156 C134.729,2.46094 134.279,2.26562 133.711,2.26562 C133.143,2.26562 132.693,2.46094 132.359,2.85156 C132.026,3.24219 131.859,3.77604 131.859,4.45312 C131.859,5.13021 132.026,5.66406 132.359,6.05469 M140.719,6 C140.115,6 139.641,6.16667 139.297,6.5 C138.964,6.83333 138.797,7.28906 138.797,7.86719 C138.797,8.44531 138.964,8.90104 139.297,9.23438 C139.641,9.56771 140.112,9.73438 140.711,9.73438 C141.31,9.73438 141.781,9.56771 142.125,9.23438 C142.479,8.90104 142.656,8.44792 142.656,7.875 C142.656,7.29167 142.484,6.83333 142.141,6.5 C141.797,6.16667 141.323,6 140.719,6 M139.625,5.73438 C139.281,5.59896 139,5.38021 138.781,5.07812 C138.542,4.76562 138.422,4.38021 138.422,3.92188 C138.422,3.27604 138.628,2.76562 139.039,2.39062 C139.451,2.01562 140.01,1.82812 140.719,1.82812 C141.427,1.82812 141.984,2.01562 142.391,2.39062 C142.797,2.76562 143,3.27604 143,3.92188 C143,4.39062 142.885,4.77604 142.656,5.07812 C142.417,5.39062 142.135,5.60938 141.812,5.73438 C142.208,5.85938 142.531,6.09375 142.781,6.4375 C143.042,6.79167 143.172,7.22917 143.172,7.75 C143.172,8.52083 142.964,9.11458 142.547,9.53125 C142.12,9.94792 141.51,10.1562 140.719,10.1562 C139.927,10.1562 139.318,9.94792 138.891,9.53125 C138.464,9.11458 138.25,8.52083 138.25,7.75 C138.25,7.22917 138.38,6.79167 138.641,6.4375 C138.932,6.08333 139.26,5.84896 139.625,5.73438 M139.43,2.71094 C139.122,2.9974 138.969,3.40104 138.969,3.92188 C138.969,4.44271 139.122,4.84896 139.43,5.14062 C139.737,5.43229 140.167,5.57812 140.719,5.57812 C141.26,5.57812 141.688,5.43229 142,5.14062 C142.312,4.84896 142.469,4.44271 142.469,3.92188 C142.469,3.40104 142.312,3 142,2.71875 C141.688,2.42708 141.26,2.28125 140.719,2.28125 C140.167,2.28125 139.737,2.42448 139.43,2.71094 M145.844,9.5625 L147.609,9.5625 L147.609,2.46875 L145.406,3.35938 L145.406,2.85938 L147.594,1.98438 L148.141,1.98438 L148.141,9.5625 L149.922,9.5625 L149.922,10 L145.844,10 L145.844,9.5625 M152.672,9.82812 L152.672,9.26562 C152.922,9.41146 153.172,9.52604 153.422,9.60938 C153.672,9.68229 153.922,9.71875 154.172,9.71875 C155.234,9.71875 155.979,9.19792 156.406,8.15625 C156.604,7.67708 156.693,6.86979 156.672,5.73438 C156.495,6.13021 156.266,6.4375 155.984,6.65625 C155.62,6.94792 155.161,7.09375 154.609,7.09375 C153.932,7.09375 153.37,6.85417 152.922,6.375 C152.474,5.90625 152.25,5.30208 152.25,4.5625 C152.25,3.73958 152.469,3.07812 152.906,2.57812 C153.354,2.07812 153.927,1.82812 154.625,1.82812 C155.469,1.82812 156.115,2.1875 156.562,2.90625 C157.01,3.61458 157.234,4.64583 157.234,6 C157.234,7.4375 156.958,8.48958 156.406,9.15625 C155.865,9.82292 155.13,10.1562 154.203,10.1562 C153.953,10.1562 153.703,10.1302 153.453,10.0781 C153.203,10.026 152.943,9.94271 152.672,9.82812 M153.312,6.05469 C153.646,6.44531 154.096,6.64062 154.664,6.64062 C155.232,6.64062 155.682,6.44531 156.016,6.05469 C156.349,5.66406 156.516,5.13021 156.516,4.45312 C156.516,3.77604 156.349,3.24219 156.016,2.85156 C155.682,2.46094 155.232,2.26562 154.664,2.26562 C154.096,2.26562 153.646,2.46094 153.312,2.85156 C152.979,3.24219 152.812,3.77604 152.812,4.45312 C152.812,5.13021 152.979,5.66406 153.312,6.05469 M161.672,6 C161.068,6 160.594,6.16667 160.25,6.5 C159.917,6.83333 159.75,7.28906 159.75,7.86719 C159.75,8.44531 159.917,8.90104 160.25,9.23438 C160.594,9.56771 161.065,9.73438 161.664,9.73438 C162.263,9.73438 162.734,9.56771 163.078,9.23438 C163.432,8.90104 163.609,8.44792 163.609,7.875 C163.609,7.29167 163.438,6.83333 163.094,6.5 C162.75,6.16667 162.276,6 161.672,6 M160.578,5.73438 C160.234,5.59896 159.953,5.38021 159.734,5.07812 C159.495,4.76562 159.375,4.38021 159.375,3.92188 C159.375,3.27604 159.581,2.76562 159.992,2.39062 C160.404,2.01562 160.964,1.82812 161.672,1.82812 C162.38,1.82812 162.938,2.01562 163.344,2.39062 C163.75,2.76562 163.953,3.27604 163.953,3.92188 C163.953,4.39062 163.839,4.77604 163.609,5.07812 C163.37,5.39062 163.089,5.60938 162.766,5.73438 C163.161,5.85938 163.484,6.09375 163.734,6.4375 C163.995,6.79167 164.125,7.22917 164.125,7.75 C164.125,8.52083 163.917,9.11458 163.5,9.53125 C163.073,9.94792 162.464,10.1562 161.672,10.1562 C160.88,10.1562 160.271,9.94792 159.844,9.53125 C159.417,9.11458 159.203,8.52083 159.203,7.75 C159.203,7.22917 159.333,6.79167 159.594,6.4375 C159.885,6.08333 160.214,5.84896 160.578,5.73438 M160.383,2.71094 C160.076,2.9974 159.922,3.40104 159.922,3.92188 C159.922,4.44271 160.076,4.84896 160.383,5.14062 C160.69,5.43229 161.12,5.57812 161.672,5.57812 C162.214,5.57812 162.641,5.43229 162.953,5.14062 C163.266,4.84896 163.422,4.44271 163.422,3.92188 C163.422,3.40104 163.266,3 162.953,2.71875 C162.641,2.42708 162.214,2.28125 161.672,2.28125 C161.12,2.28125 160.69,2.42448 160.383,2.71094 "/>
</g>

<g fill="none" stroke="#000000" stroke-opacity="1" stroke-width="1" stroke-linecap="square" stroke-linejoin="bevel" transform="matrix(2,0,0,2,67.5262,35)"
font-family="sans" font-size="11" font-weight="100" font-style="normal" 
>
</g>

<g fill="none" stroke="#000000" stroke-opacity="1" stroke-width="1" stroke-linecap="square" stroke-linejoin="bevel" transform="matrix(2,0,0,2,67.5262,35)"
font-family="Sans Serif" font-size="9" font-weight="400" font-style="normal" 
>
</g>

<g fill="none" stroke="#000000" stroke-opacity="1" stroke-width="1" stroke-linecap="square" stroke-linejoin="bevel" transform="matrix(2,0,0,2,0.0024,150)"
font-family="Sans Serif" font-size="9" font-weight="400" font-style="normal" 
>
</g>

<g fill="none" stroke="#000000" stroke-opacity="1" stroke-width="1" stroke-linecap="square" stroke-linejoin="bevel" transform="matrix(2,0,0,2,0.0024,150)"
font-family="Sans Serif" font-size="9" font-weight="400" font-style="normal" 
>
</g>

<g fill="none" stroke="#000000" stroke-opacity="1" stroke-width="1" stroke-linecap="square" stroke-linejoin="bevel" transform="matrix(2,0,0,2,0.0024,150)"
font-family="Sans Serif" font-size="9" font-weight="400" font-style="normal" 
>
</g>

<g fill="none" stroke="#000000" stroke-opacity="1" stroke-width="1" stroke-linecap="square" stroke-linejoin="round" transform="matrix(2,0,0,2,0.0024,150)"
font-family="Sans Serif" font-size="9" font-weight="400" font-style="normal" 
>
<ellipse cx="421.52" cy="-18" rx="70.3444" ry="17.5"/>
</g>

<g fill="none" stroke="#000000" stroke-opacity="1" stroke-width="1" stroke-linecap="square" stroke-linejoin="bevel" transform="matrix(2,0,0,2,0.0024,150)"
font-family="Sans Serif" font-size="9" font-weight="400" font-style="normal" 
>
</g>

<g fill="none" stroke="#000000" stroke-opacity="1" stroke-width="1" stroke-linecap="square" stroke-linejoin="bevel" transform="matrix(2,0,0,2,749.652,101)"
font-family="Sans Serif" font-size="9" font-weight="400" font-style="normal" 
>
</g>

<g fill="none" stroke="#000000" stroke-opacity="1" stroke-width="1" stroke-linecap="square" stroke-linejoin="bevel" transform="matrix(2,0,0,2,749.652,101)"
font-family="sans" font-size="11" font-weight="100" font-style="normal" 
>
</g>

<g fill="#000000" fill-opacity="1" stroke="#000000" stroke-opacity="1" stroke-width="1" stroke-linecap="square" stroke-linejoin="round" transform="matrix(2,0,0,2,749.652,101)"
font-family="sans" font-size="11" font-weight="100" font-style="normal" 
>
<path vector-effect="none" fill-rule="nonzero" d="M2.96875,1.98438 L3.53125,1.98438 L0.734375,11.0156 L0.171875,11.0156 L2.96875,1.98438 M8.35938,4.15625 L8.35938,4.70312 C8.00521,4.50521 7.78646,4.39583 7.70312,4.375 C7.45312,4.32292 7.14062,4.29167 6.76562,4.28125 C6.20312,4.28125 5.76042,4.39062 5.4375,4.60938 C5.1875,4.79688 5.0625,5.11458 5.0625,5.5625 C5.0625,5.875 5.18229,6.11458 5.42188,6.28125 C5.66146,6.46875 6.01042,6.61458 6.46875,6.71875 L6.8125,6.78125 C7.38542,6.90625 7.81771,7.08333 8.10938,7.3125 C8.45312,7.58333 8.63021,7.92708 8.64062,8.34375 C8.64062,8.90625 8.47396,9.34896 8.14062,9.67188 C7.78646,9.99479 7.20833,10.1562 6.40625,10.1562 C5.96875,10.1562 5.63542,10.125 5.40625,10.0625 C5.125,9.98958 4.83333,9.89583 4.53125,9.78125 L4.53125,9.15625 C4.96875,9.40625 5.25,9.55208 5.375,9.59375 C5.72917,9.6875 6.08333,9.73438 6.4375,9.73438 C7.01042,9.73438 7.4375,9.61458 7.71875,9.375 C8,9.125 8.14062,8.80729 8.14062,8.42188 C8.14062,8.08854 8.04688,7.84896 7.85938,7.70312 C7.58854,7.48438 7.16146,7.30729 6.57812,7.17188 L6.23438,7.09375 C5.72396,6.96875 5.33854,6.80208 5.07812,6.59375 C4.74479,6.32292 4.57812,5.99479 4.57812,5.60938 C4.57812,4.98438 4.77865,4.53385 5.17969,4.25781 C5.58073,3.98177 6.07292,3.84375 6.65625,3.84375 C7.15625,3.84375 7.5,3.86979 7.6875,3.92188 C7.91667,3.98438 8.14062,4.0625 8.35938,4.15625 M10.6562,3.98438 L11.1562,3.98438 L11.1562,10 L10.6562,10 L10.6562,3.98438 M10.6562,1.64062 L11.1562,1.64062 L11.1562,2.3125 L10.6562,2.3125 L10.6562,1.64062 M18.0469,5.29688 C18.2344,4.80729 18.526,4.44271 18.9219,4.20312 C19.3073,3.96354 19.7604,3.84375 20.2812,3.84375 C20.8021,3.84375 21.2188,4.02604 21.5312,4.39062 C21.8542,4.75521 22.0156,5.41667 22.0156,6.375 L22.0156,10 L21.5312,10 L21.5312,6.40625 C21.5312,5.57292 21.4167,5.01042 21.1875,4.71875 C20.9583,4.42708 20.651,4.28125 20.2656,4.28125 C19.7135,4.28125 19.2292,4.44792 18.8125,4.78125 C18.3438,5.15625 18.1094,5.76042 18.1094,6.59375 L18.1094,10 L17.625,10 L17.625,6.40625 C17.625,5.60417 17.513,5.04948 17.2891,4.74219 C17.0651,4.4349 16.7552,4.28125 16.3594,4.28125 C15.8073,4.28125 15.3229,4.45312 14.9062,4.79688 C14.4375,5.16146 14.2031,5.76042 14.2031,6.59375 L14.2031,10 L13.7188,10 L13.7188,3.98438 L14.2031,3.98438 L14.2031,5.10938 C14.3802,4.71354 14.6562,4.40104 15.0312,4.17188 C15.3958,3.95312 15.849,3.84375 16.3906,3.84375 C16.7448,3.84375 17.0833,3.95833 17.4062,4.1875 C17.6562,4.375 17.8698,4.74479 18.0469,5.29688 M24.3594,7.60938 L24.3594,3.98438 L24.8438,3.98438 L24.8438,7.57812 C24.8438,8.35938 24.9688,8.90885 25.2188,9.22656 C25.4688,9.54427 25.8385,9.70312 26.3281,9.70312 C26.901,9.70312 27.3906,9.53125 27.7969,9.1875 C28.2031,8.84375 28.4062,8.24479 28.4062,7.39062 L28.4062,3.98438 L28.8906,3.98438 L28.8906,10 L28.4062,10 L28.4062,8.875 C28.2292,9.23958 27.9948,9.51562 27.7031,9.70312 C27.2865,9.99479 26.8229,10.1406 26.3125,10.1406 C25.7188,10.1406 25.2448,9.9375 24.8906,9.53125 C24.5365,9.13542 24.3594,8.49479 24.3594,7.60938 M31.3906,1.64062 L31.875,1.64062 L31.875,10 L31.3906,10 L31.3906,1.64062 M36.8438,6.60938 C36.0417,6.60938 35.4661,6.75 35.1172,7.03125 C34.7682,7.3125 34.5938,7.72396 34.5938,8.26562 C34.5938,8.79688 34.7396,9.17448 35.0312,9.39844 C35.3229,9.6224 35.6667,9.73438 36.0625,9.73438 C36.8125,9.73438 37.3542,9.41667 37.6875,8.78125 C38.0208,8.13542 38.1875,7.53125 38.1875,6.96875 L38.1875,6.60938 L36.8438,6.60938 M38.6875,6.5625 L38.6875,10 L38.1875,10 L38.1875,8.35938 C37.9167,9.16146 37.5521,9.67188 37.0938,9.89062 C36.7396,10.0677 36.3802,10.1562 36.0156,10.1562 C35.4219,10.1562 34.9531,9.99479 34.6094,9.67188 C34.2656,9.34896 34.0938,8.8776 34.0938,8.25781 C34.0938,7.63802 34.3177,7.14062 34.7656,6.76562 C35.2135,6.39062 35.9427,6.20312 36.9531,6.20312 L38.1875,6.20312 L38.1875,6.10938 C38.1875,5.57812 38.0312,5.14062 37.7188,4.79688 C37.4271,4.45312 36.9323,4.28125 36.2344,4.28125 C35.8906,4.28125 35.5417,4.34375 35.1875,4.46875 C34.9583,4.55208 34.6562,4.71875 34.2812,4.96875 L34.2812,4.4375 C34.6042,4.23958 34.9062,4.09896 35.1875,4.01562 C35.5833,3.90104 35.9635,3.84375 36.3281,3.84375 C37.0469,3.84375 37.6354,4.05729 38.0938,4.48438 C38.4896,4.84896 38.6875,5.54167 38.6875,6.5625 M41.6875,2.28125 L41.6875,3.98438 L43.7188,3.98438 L43.7188,4.40625 L41.6875,4.40625 L41.6875,8.01562 C41.6875,8.47396 41.7448,8.79688 41.8594,8.98438 C42.1094,9.38021 42.4688,9.57812 42.9375,9.57812 L43.7188,9.57812 L43.7188,10 L42.9531,10 C42.4635,10 42.0469,9.85677 41.7031,9.57031 C41.3594,9.28385 41.1875,8.76562 41.1875,8.01562 L41.1875,4.40625 L40.4688,4.40625 L40.4688,3.98438 L41.1875,3.98438 L41.1875,2.28125 L41.6875,2.28125 M50.1719,6.75 L50.1719,7.0625 L45.6094,7.0625 C45.6094,8.02083 45.7969,8.69792 46.1719,9.09375 C46.5885,9.52083 47.2031,9.73438 48.0156,9.73438 C48.2344,9.73438 48.5208,9.6875 48.875,9.59375 C49.2292,9.5 49.5833,9.35938 49.9375,9.17188 L49.9375,9.6875 C49.5833,9.84375 49.2214,9.96094 48.8516,10.0391 C48.4818,10.1172 48.1875,10.1562 47.9688,10.1562 C47.0417,10.1562 46.3438,9.90625 45.875,9.40625 C45.3646,8.875 45.1094,8.09375 45.1094,7.0625 C45.1094,5.98958 45.3385,5.1875 45.7969,4.65625 C46.276,4.11458 46.9427,3.84375 47.7969,3.84375 C48.5781,3.84375 49.1719,4.10417 49.5781,4.625 C49.974,5.16667 50.1719,5.875 50.1719,6.75 M49.6719,6.64062 C49.6719,5.79688 49.4792,5.18229 49.0938,4.79688 C48.7812,4.45312 48.349,4.28125 47.7969,4.28125 C47.2031,4.28125 46.7031,4.45833 46.2969,4.8125 C45.9219,5.14583 45.6979,5.75521 45.625,6.64062 L49.6719,6.64062 M56.25,5.35938 L56.25,1.64062 L56.7188,1.64062 L56.7188,10 L56.25,10 L56.25,8.64062 C56.0208,9.16146 55.7708,9.51562 55.5,9.70312 C55.1042,10.0052 54.724,10.1562 54.3594,10.1562 C53.651,10.1562 53.0599,9.86719 52.5859,9.28906 C52.112,8.71094 51.875,7.94792 51.875,7 C51.875,6.05208 52.112,5.28906 52.5859,4.71094 C53.0599,4.13281 53.651,3.84375 54.3594,3.84375 C54.724,3.84375 55.1042,3.98958 55.5,4.28125 C55.7708,4.47917 56.0208,4.83854 56.25,5.35938 M53.0156,4.90625 C52.599,5.32292 52.3906,6.02083 52.3906,7 C52.3906,7.97917 52.599,8.67708 53.0156,9.09375 C53.4323,9.51042 53.8698,9.71875 54.3281,9.71875 C54.776,9.71875 55.2083,9.51042 55.625,9.09375 C56.0312,8.67708 56.2344,7.97917 56.2344,7 C56.2344,6.02083 56.0312,5.32292 55.625,4.90625 C55.2083,4.48958 54.776,4.28125 54.3281,4.28125 C53.8698,4.28125 53.4323,4.48958 53.0156,4.90625 M63.5781,12.1719 L63.5781,12.5938 L57.8594,12.5938 L57.8594,12.1719 L63.5781,12.1719 M65.2344,2.28125 L65.2344,3.98438 L67.2656,3.98438 L67.2656,4.40625 L65.2344,4.40625 L65.2344,8.01562 C65.2344,8.47396 65.2917,8.79688 65.4062,8.98438 C65.6562,9.38021 66.0156,9.57812 66.4844,9.57812 L67.2656,9.57812 L67.2656,10 L66.5,10 C66.0104,10 65.5938,9.85677 65.25,9.57031 C64.9062,9.28385 64.7344,8.76562 64.7344,8.01562 L64.7344,4.40625 L64.0156,4.40625 L64.0156,3.98438 L64.7344,3.98438 L64.7344,2.28125 L65.2344,2.28125 M68.9688,7.60938 L68.9688,3.98438 L69.4531,3.98438 L69.4531,7.57812 C69.4531,8.35938 69.5781,8.90885 69.8281,9.22656 C70.0781,9.54427 70.4479,9.70312 70.9375,9.70312 C71.5104,9.70312 72,9.53125 72.4062,9.1875 C72.8125,8.84375 73.0156,8.24479 73.0156,7.39062 L73.0156,3.98438 L73.5,3.98438 L73.5,10 L73.0156,10 L73.0156,8.875 C72.8385,9.23958 72.6042,9.51562 72.3125,9.70312 C71.8958,9.99479 71.4323,10.1406 70.9219,10.1406 C70.3281,10.1406 69.8542,9.9375 69.5,9.53125 C69.1458,9.13542 68.9688,8.49479 68.9688,7.60938 M79.2656,4.40625 C79.1823,4.36458 79.0729,4.33333 78.9375,4.3125 C78.8125,4.29167 78.6615,4.28125 78.4844,4.28125 C77.8698,4.28125 77.3646,4.50521 76.9688,4.95312 C76.6458,5.31771 76.4844,5.94271 76.4844,6.82812 L76.4844,10 L76,10 L76,3.98438 L76.4844,3.98438 L76.4844,5.10938 C76.651,4.78646 76.8802,4.51562 77.1719,4.29688 C77.5677,3.99479 78.0365,3.84375 78.5781,3.84375 C78.724,3.84375 78.849,3.84896 78.9531,3.85938 C79.0573,3.85938 79.1615,3.86979 79.2656,3.89062 L79.2656,4.40625 M81.0312,2.28125 L81.0312,3.98438 L83.0625,3.98438 L83.0625,4.40625 L81.0312,4.40625 L81.0312,8.01562 C81.0312,8.47396 81.0885,8.79688 81.2031,8.98438 C81.4531,9.38021 81.8125,9.57812 82.2812,9.57812 L83.0625,9.57812 L83.0625,10 L82.2969,10 C81.8073,10 81.3906,9.85677 81.0469,9.57031 C80.7031,9.28385 80.5312,8.76562 80.5312,8.01562 L80.5312,4.40625 L79.8125,4.40625 L79.8125,3.98438 L80.5312,3.98438 L80.5312,2.28125 L81.0312,2.28125 M84.8281,1.64062 L85.3125,1.64062 L85.3125,10 L84.8281,10 L84.8281,1.64062 M92.5625,6.75 L92.5625,7.0625 L88,7.0625 C88,8.02083 88.1875,8.69792 88.5625,9.09375 C88.9792,9.52083 89.5938,9.73438 90.4062,9.73438 C90.625,9.73438 90.9115,9.6875 91.2656,9.59375 C91.6198,9.5 91.974,9.35938 92.3281,9.17188 L92.3281,9.6875 C91.974,9.84375 91.612,9.96094 91.2422,10.0391 C90.8724,10.1172 90.5781,10.1562 90.3594,10.1562 C89.4323,10.1562 88.7344,9.90625 88.2656,9.40625 C87.7552,8.875 87.5,8.09375 87.5,7.0625 C87.5,5.98958 87.7292,5.1875 88.1875,4.65625 C88.6667,4.11458 89.3333,3.84375 90.1875,3.84375 C90.9688,3.84375 91.5625,4.10417 91.9688,4.625 C92.3646,5.16667 92.5625,5.875 92.5625,6.75 M92.0625,6.64062 C92.0625,5.79688 91.8698,5.18229 91.4844,4.79688 C91.1719,4.45312 90.7396,4.28125 90.1875,4.28125 C89.5938,4.28125 89.0938,4.45833 88.6875,4.8125 C88.3125,5.14583 88.0885,5.75521 88.0156,6.64062 L92.0625,6.64062"/>
</g>

<g fill="none" stroke="#000000" stroke-opacity="1" stroke-width="1" stroke-linecap="square" stroke-linejoin="bevel" transform="matrix(2,0,0,2,749.652,101)"
font-family="sans" font-size="11" font-weight="100" font-style="normal" 
>
</g>

<g fill="none" stroke="#000000" stroke-opacity="1" stroke-width="1" stroke-linecap="square" stroke-linejoin="bevel" transform="matrix(2,0,0,2,749.652,101)"
font-family="Sans Serif" font-size="9" font-weight="400" font-style="normal" 
>
</g>

<g fill="none" stroke="#000000" stroke-opacity="1" stroke-width="1" stroke-linecap="square" stroke-linejoin="bevel" transform="matrix(2,0,0,2,0.0024,150)"
font-family="Sans Serif" font-size="9" font-weight="400" font-style="normal" 
>
</g>

<g fill="none" stroke="#000000" stroke-opacity="1" stroke-width="1" stroke-linecap="square" stroke-linejoin="bevel" transform="matrix(2,0,0,2,0.0024,150)"
font-family="Sans Serif" font-size="9" font-weight="400" font-style="normal" 
>
</g>

<g fill="none" stroke="#000000" stroke-opacity="1" stroke-width="1" stroke-linecap="square" stroke-linejoin="bevel" transform="matrix(2,0,0,2,0.0024,150)"
font-family="Sans Serif" font-size="9" font-weight="400" font-style="normal" 
>
</g>

<g fill="none" stroke="#000000" stroke-opacity="1" stroke-width="1" stroke-linecap="square" stroke-linejoin="round" transform="matrix(2,0,0,2,0.0024,150)"
font-family="Sans Serif" font-size="9" font-weight="400" font-style="normal" 
>
<ellipse cx="743.86" cy="-57" rx="122.991" ry="17.5"/>
</g>

<g fill="none" stroke="#000000" stroke-opacity="1" stroke-width="1" stroke-linecap="square" stroke-linejoin="bevel" transform="matrix(2,0,0,2,0.0024,150)"
font-family="Sans Serif" font-size="9" font-weight="400" font-style="normal" 
>
</g>

<g fill="none" stroke="#000000" stroke-opacity="1" stroke-width="1" stroke-linecap="square" stroke-linejoin="bevel" transform="matrix(2,0,0,2,1310.28,23)"
font-family="Sans Serif" font-size="9" font-weight="400" font-style="normal" 
>
</g>

<g fill="none" stroke="#000000" stroke-opacity="1" stroke-width="1" stroke-linecap="square" stroke-linejoin="bevel" transform="matrix(2,0,0,2,1310.28,23)"
font-family="sans" font-size="11" font-weight="100" font-style="normal" 
>
</g>

<g fill="#000000" fill-opacity="1" stroke="#000000" stroke-opacity="1" stroke-width="1" stroke-linecap="square" stroke-linejoin="round" transform="matrix(2,0,0,2,1310.28,23)"
font-family="sans" font-size="11" font-weight="100" font-style="normal" 
>
<path vector-effect="none" fill-rule="nonzero" d="M2.96875,1.98438 L3.53125,1.98438 L0.734375,11.0156 L0.171875,11.0156 L2.96875,1.98438 M8.21875,4.40625 C8.13542,4.36458 8.02604,4.33333 7.89062,4.3125 C7.76562,4.29167 7.61458,4.28125 7.4375,4.28125 C6.82292,4.28125 6.31771,4.50521 5.92188,4.95312 C5.59896,5.31771 5.4375,5.94271 5.4375,6.82812 L5.4375,10 L4.95312,10 L4.95312,3.98438 L5.4375,3.98438 L5.4375,5.10938 C5.60417,4.78646 5.83333,4.51562 6.125,4.29688 C6.52083,3.99479 6.98958,3.84375 7.53125,3.84375 C7.67708,3.84375 7.80208,3.84896 7.90625,3.85938 C8.01042,3.85938 8.11458,3.86979 8.21875,3.89062 L8.21875,4.40625 M14.1562,6.75 L14.1562,7.0625 L9.59375,7.0625 C9.59375,8.02083 9.78125,8.69792 10.1562,9.09375 C10.5729,9.52083 11.1875,9.73438 12,9.73438 C12.2188,9.73438 12.5052,9.6875 12.8594,9.59375 C13.2135,9.5 13.5677,9.35938 13.9219,9.17188 L13.9219,9.6875 C13.5677,9.84375 13.2057,9.96094 12.8359,10.0391 C12.4661,10.1172 12.1719,10.1562 11.9531,10.1562 C11.026,10.1562 10.3281,9.90625 9.85938,9.40625 C9.34896,8.875 9.09375,8.09375 9.09375,7.0625 C9.09375,5.98958 9.32292,5.1875 9.78125,4.65625 C10.2604,4.11458 10.9271,3.84375 11.7812,3.84375 C12.5625,3.84375 13.1562,4.10417 13.5625,4.625 C13.9583,5.16667 14.1562,5.875 14.1562,6.75 M13.6562,6.64062 C13.6562,5.79688 13.4635,5.18229 13.0781,4.79688 C12.7656,4.45312 12.3333,4.28125 11.7812,4.28125 C11.1875,4.28125 10.6875,4.45833 10.2812,4.8125 C9.90625,5.14583 9.68229,5.75521 9.60938,6.64062 L13.6562,6.64062 M20.3438,4.28125 L20.3438,4.79688 C20.0521,4.61979 19.8073,4.5 19.6094,4.4375 C19.276,4.33333 18.9583,4.28125 18.6562,4.28125 C17.7917,4.28125 17.1719,4.5026 16.7969,4.94531 C16.4219,5.38802 16.2344,6.07292 16.2344,7 C16.2344,7.9375 16.4219,8.6276 16.7969,9.07031 C17.1719,9.51302 17.7917,9.73438 18.6562,9.73438 C18.9479,9.73438 19.2292,9.69271 19.5,9.60938 C19.7917,9.53646 20.0729,9.42188 20.3438,9.26562 L20.3438,9.76562 C20.0729,9.90104 19.7917,10 19.5,10.0625 C19.1979,10.125 18.901,10.1562 18.6094,10.1562 C17.7344,10.1562 17.0365,9.91667 16.5156,9.4375 C15.9948,8.95833 15.7344,8.14323 15.7344,6.99219 C15.7344,5.84115 15.9948,5.02604 16.5156,4.54688 C17.0365,4.07812 17.7344,3.84375 18.6094,3.84375 C18.901,3.84375 19.2083,3.88542 19.5312,3.96875 C19.8542,4.04167 20.125,4.14583 20.3438,4.28125 M25.8594,5.01562 C25.5052,4.52604 25.0208,4.28125 24.4062,4.28125 C23.7917,4.28125 23.3073,4.52604 22.9531,5.01562 C22.599,5.49479 22.4219,6.15104 22.4219,6.98438 C22.4219,7.83854 22.599,8.51042 22.9531,9 C23.3073,9.48958 23.7917,9.73438 24.4062,9.73438 C25.0208,9.73438 25.5052,9.48958 25.8594,9 C26.2135,8.5 26.3906,7.82812 26.3906,6.98438 C26.3906,6.16146 26.2135,5.50521 25.8594,5.01562 M24.4062,3.84375 C25.1667,3.84375 25.7708,4.13021 26.2188,4.70312 C26.6667,5.27604 26.8906,6.03646 26.8906,6.98438 C26.8906,7.97396 26.6667,8.75521 26.2188,9.32812 C25.7708,9.90104 25.1667,10.1875 24.4062,10.1875 C23.625,10.1875 23.0104,9.90104 22.5625,9.32812 C22.125,8.75521 21.9062,7.97396 21.9062,6.98438 C21.9062,6.02604 22.1302,5.26302 22.5781,4.69531 C23.026,4.1276 23.6354,3.84375 24.4062,3.84375 M32.2656,4.40625 C32.1823,4.36458 32.0729,4.33333 31.9375,4.3125 C31.8125,4.29167 31.6615,4.28125 31.4844,4.28125 C30.8698,4.28125 30.3646,4.50521 29.9688,4.95312 C29.6458,5.31771 29.4844,5.94271 29.4844,6.82812 L29.4844,10 L29,10 L29,3.98438 L29.4844,3.98438 L29.4844,5.10938 C29.651,4.78646 29.8802,4.51562 30.1719,4.29688 C30.5677,3.99479 31.0365,3.84375 31.5781,3.84375 C31.724,3.84375 31.849,3.84896 31.9531,3.85938 C32.0573,3.85938 32.1615,3.86979 32.2656,3.89062 L32.2656,4.40625 M37.5156,5.35938 L37.5156,1.64062 L37.9844,1.64062 L37.9844,10 L37.5156,10 L37.5156,8.64062 C37.2865,9.16146 37.0365,9.51562 36.7656,9.70312 C36.3698,10.0052 35.9896,10.1562 35.625,10.1562 C34.9167,10.1562 34.3255,9.86719 33.8516,9.28906 C33.3776,8.71094 33.1406,7.94792 33.1406,7 C33.1406,6.05208 33.3776,5.28906 33.8516,4.71094 C34.3255,4.13281 34.9167,3.84375 35.625,3.84375 C35.9896,3.84375 36.3698,3.98958 36.7656,4.28125 C37.0365,4.47917 37.2865,4.83854 37.5156,5.35938 M34.2812,4.90625 C33.8646,5.32292 33.6562,6.02083 33.6562,7 C33.6562,7.97917 33.8646,8.67708 34.2812,9.09375 C34.6979,9.51042 35.1354,9.71875 35.5938,9.71875 C36.0417,9.71875 36.474,9.51042 36.8906,9.09375 C37.2969,8.67708 37.5,7.97917 37.5,7 C37.5,6.02083 37.2969,5.32292 36.8906,4.90625 C36.474,4.48958 36.0417,4.28125 35.5938,4.28125 C35.1354,4.28125 34.6979,4.48958 34.2812,4.90625 M44.8438,12.1719 L44.8438,12.5938 L39.125,12.5938 L39.125,12.1719 L44.8438,12.1719 M46.375,9.5625 L48.1406,9.5625 L48.1406,2.46875 L45.9375,3.35938 L45.9375,2.85938 L48.125,1.98438 L48.6719,1.98438 L48.6719,9.5625 L50.4531,9.5625 L50.4531,10 L46.375,10 L46.375,9.5625 M53.125,1.98438 L56.9219,1.98438 L56.9219,2.42188 L53.6562,2.42188 L53.6562,5.10938 C53.8229,5.04688 53.9844,5 54.1406,4.96875 C54.2969,4.9375 54.526,4.92188 54.8281,4.92188 C55.651,4.92188 56.3021,5.15104 56.7812,5.60938 C57.2604,6.05729 57.5,6.66146 57.5,7.42188 C57.5,8.28646 57.25,8.95833 56.75,9.4375 C56.2604,9.91667 55.5677,10.1562 54.6719,10.1562 C54.3802,10.1562 54.0781,10.1302 53.7656,10.0781 C53.4531,10.026 53.1302,9.95312 52.7969,9.85938 L52.7969,9.3125 C53.0781,9.4375 53.3698,9.53646 53.6719,9.60938 C53.974,9.67188 54.2917,9.70312 54.625,9.70312 C55.3333,9.70312 55.901,9.5 56.3281,9.09375 C56.7552,8.6875 56.9688,8.13021 56.9688,7.42188 C56.9688,6.78646 56.7604,6.28646 56.3438,5.92188 C55.9271,5.54688 55.3646,5.35938 54.6562,5.35938 C54.5104,5.35938 54.2917,5.40104 54,5.48438 C53.7188,5.55729 53.4271,5.67708 53.125,5.84375 L53.125,1.98438 M60.0312,9.5625 L64.5938,9.5625 L64.5938,10 L59.4688,10 L59.4688,9.4375 L61.4688,7.35938 C61.9583,6.85938 62.4062,6.39583 62.8125,5.96875 C63.1771,5.57292 63.4219,5.26562 63.5469,5.04688 C63.6719,4.82812 63.7344,4.53646 63.7344,4.17188 C63.7344,3.55729 63.5469,3.0625 63.1719,2.6875 C62.901,2.41667 62.4583,2.28125 61.8438,2.28125 C61.4792,2.28125 61.0677,2.38542 60.6094,2.59375 C60.401,2.6875 60.0521,2.89062 59.5625,3.20312 L59.5625,2.64062 C59.7708,2.49479 60.0729,2.32812 60.4688,2.14062 C60.9271,1.94271 61.3802,1.83854 61.8281,1.82812 C62.5156,1.82812 63.0938,2.01042 63.5625,2.375 C64.0208,2.72917 64.25,3.3125 64.25,4.125 C64.25,4.45833 64.1875,4.77083 64.0625,5.0625 C63.9167,5.40625 63.6927,5.75521 63.3906,6.10938 C63.2969,6.21354 63.0104,6.51042 62.5312,7 L60.0312,9.5625 M70.1094,2.28125 L66.7812,7.4375 L70.1094,7.4375 L70.1094,2.28125 M69.6875,1.98438 L70.6562,1.98438 L70.6562,7.4375 L71.8125,7.4375 L71.8125,7.875 L70.6562,7.875 L70.6562,10 L70.1094,10 L70.1094,7.875 L66.2188,7.875 L66.2188,7.3125 L69.6875,1.98438 M74,9.5625 L78.5625,9.5625 L78.5625,10 L73.4375,10 L73.4375,9.4375 L75.4375,7.35938 C75.9271,6.85938 76.375,6.39583 76.7812,5.96875 C77.1458,5.57292 77.3906,5.26562 77.5156,5.04688 C77.6406,4.82812 77.7031,4.53646 77.7031,4.17188 C77.7031,3.55729 77.5156,3.0625 77.1406,2.6875 C76.8698,2.41667 76.4271,2.28125 75.8125,2.28125 C75.4479,2.28125 75.0365,2.38542 74.5781,2.59375 C74.3698,2.6875 74.0208,2.89062 73.5312,3.20312 L73.5312,2.64062 C73.7396,2.49479 74.0417,2.32812 74.4375,2.14062 C74.8958,1.94271 75.349,1.83854 75.7969,1.82812 C76.4844,1.82812 77.0625,2.01042 77.5312,2.375 C77.9896,2.72917 78.2188,3.3125 78.2188,4.125 C78.2188,4.45833 78.1562,4.77083 78.0312,5.0625 C77.8854,5.40625 77.6615,5.75521 77.3594,6.10938 C77.2656,6.21354 76.9792,6.51042 76.5,7 L74,9.5625 M81.0625,1.98438 L84.8594,1.98438 L84.8594,2.42188 L81.5938,2.42188 L81.5938,5.10938 C81.7604,5.04688 81.9219,5 82.0781,4.96875 C82.2344,4.9375 82.4635,4.92188 82.7656,4.92188 C83.5885,4.92188 84.2396,5.15104 84.7188,5.60938 C85.1979,6.05729 85.4375,6.66146 85.4375,7.42188 C85.4375,8.28646 85.1875,8.95833 84.6875,9.4375 C84.1979,9.91667 83.5052,10.1562 82.6094,10.1562 C82.3177,10.1562 82.0156,10.1302 81.7031,10.0781 C81.3906,10.026 81.0677,9.95312 80.7344,9.85938 L80.7344,9.3125 C81.0156,9.4375 81.3073,9.53646 81.6094,9.60938 C81.9115,9.67188 82.2292,9.70312 82.5625,9.70312 C83.2708,9.70312 83.8385,9.5 84.2656,9.09375 C84.6927,8.6875 84.9062,8.13021 84.9062,7.42188 C84.9062,6.78646 84.6979,6.28646 84.2812,5.92188 C83.8646,5.54688 83.3021,5.35938 82.5938,5.35938 C82.4479,5.35938 82.2292,5.40104 81.9375,5.48438 C81.6562,5.55729 81.3646,5.67708 81.0625,5.84375 L81.0625,1.98438 M91.0625,2.28125 L87.7344,7.4375 L91.0625,7.4375 L91.0625,2.28125 M90.6406,1.98438 L91.6094,1.98438 L91.6094,7.4375 L92.7656,7.4375 L92.7656,7.875 L91.6094,7.875 L91.6094,10 L91.0625,10 L91.0625,7.875 L87.1719,7.875 L87.1719,7.3125 L90.6406,1.98438 M95.0312,1.98438 L98.8281,1.98438 L98.8281,2.42188 L95.5625,2.42188 L95.5625,5.10938 C95.7292,5.04688 95.8906,5 96.0469,4.96875 C96.2031,4.9375 96.4323,4.92188 96.7344,4.92188 C97.5573,4.92188 98.2083,5.15104 98.6875,5.60938 C99.1667,6.05729 99.4062,6.66146 99.4062,7.42188 C99.4062,8.28646 99.1562,8.95833 98.6562,9.4375 C98.1667,9.91667 97.474,10.1562 96.5781,10.1562 C96.2865,10.1562 95.9844,10.1302 95.6719,10.0781 C95.3594,10.026 95.0365,9.95312 94.7031,9.85938 L94.7031,9.3125 C94.9844,9.4375 95.276,9.53646 95.5781,9.60938 C95.8802,9.67188 96.1979,9.70312 96.5312,9.70312 C97.2396,9.70312 97.8073,9.5 98.2344,9.09375 C98.6615,8.6875 98.875,8.13021 98.875,7.42188 C98.875,6.78646 98.6667,6.28646 98.25,5.92188 C97.8333,5.54688 97.2708,5.35938 96.5625,5.35938 C96.4167,5.35938 96.1979,5.40104 95.9062,5.48438 C95.625,5.55729 95.3333,5.67708 95.0312,5.84375 L95.0312,1.98438 M102.016,1.98438 L105.812,1.98438 L105.812,2.42188 L102.547,2.42188 L102.547,5.10938 C102.714,5.04688 102.875,5 103.031,4.96875 C103.188,4.9375 103.417,4.92188 103.719,4.92188 C104.542,4.92188 105.193,5.15104 105.672,5.60938 C106.151,6.05729 106.391,6.66146 106.391,7.42188 C106.391,8.28646 106.141,8.95833 105.641,9.4375 C105.151,9.91667 104.458,10.1562 103.562,10.1562 C103.271,10.1562 102.969,10.1302 102.656,10.0781 C102.344,10.026 102.021,9.95312 101.688,9.85938 L101.688,9.3125 C101.969,9.4375 102.26,9.53646 102.562,9.60938 C102.865,9.67188 103.182,9.70312 103.516,9.70312 C104.224,9.70312 104.792,9.5 105.219,9.09375 C105.646,8.6875 105.859,8.13021 105.859,7.42188 C105.859,6.78646 105.651,6.28646 105.234,5.92188 C104.818,5.54688 104.255,5.35938 103.547,5.35938 C103.401,5.35938 103.182,5.40104 102.891,5.48438 C102.609,5.55729 102.318,5.67708 102.016,5.84375 L102.016,1.98438 M112.016,2.28125 L108.688,7.4375 L112.016,7.4375 L112.016,2.28125 M111.594,1.98438 L112.562,1.98438 L112.562,7.4375 L113.719,7.4375 L113.719,7.875 L112.562,7.875 L112.562,10 L112.016,10 L112.016,7.875 L108.125,7.875 L108.125,7.3125 L111.594,1.98438 M118.078,6 C117.474,6 117,6.16667 116.656,6.5 C116.323,6.83333 116.156,7.28906 116.156,7.86719 C116.156,8.44531 116.323,8.90104 116.656,9.23438 C117,9.56771 117.471,9.73438 118.07,9.73438 C118.669,9.73438 119.141,9.56771 119.484,9.23438 C119.839,8.90104 120.016,8.44792 120.016,7.875 C120.016,7.29167 119.844,6.83333 119.5,6.5 C119.156,6.16667 118.682,6 118.078,6 M116.984,5.73438 C116.641,5.59896 116.359,5.38021 116.141,5.07812 C115.901,4.76562 115.781,4.38021 115.781,3.92188 C115.781,3.27604 115.987,2.76562 116.398,2.39062 C116.81,2.01562 117.37,1.82812 118.078,1.82812 C118.786,1.82812 119.344,2.01562 119.75,2.39062 C120.156,2.76562 120.359,3.27604 120.359,3.92188 C120.359,4.39062 120.245,4.77604 120.016,5.07812 C119.776,5.39062 119.495,5.60938 119.172,5.73438 C119.568,5.85938 119.891,6.09375 120.141,6.4375 C120.401,6.79167 120.531,7.22917 120.531,7.75 C120.531,8.52083 120.323,9.11458 119.906,9.53125 C119.479,9.94792 118.87,10.1562 118.078,10.1562 C117.286,10.1562 116.677,9.94792 116.25,9.53125 C115.823,9.11458 115.609,8.52083 115.609,7.75 C115.609,7.22917 115.74,6.79167 116,6.4375 C116.292,6.08333 116.62,5.84896 116.984,5.73438 M116.789,2.71094 C116.482,2.9974 116.328,3.40104 116.328,3.92188 C116.328,4.44271 116.482,4.84896 116.789,5.14062 C117.096,5.43229 117.526,5.57812 118.078,5.57812 C118.62,5.57812 119.047,5.43229 119.359,5.14062 C119.672,4.84896 119.828,4.44271 119.828,3.92188 C119.828,3.40104 119.672,3 119.359,2.71875 C119.047,2.42708 118.62,2.28125 118.078,2.28125 C117.526,2.28125 117.096,2.42448 116.789,2.71094 M122.891,9.5625 L127.453,9.5625 L127.453,10 L122.328,10 L122.328,9.4375 L124.328,7.35938 C124.818,6.85938 125.266,6.39583 125.672,5.96875 C126.036,5.57292 126.281,5.26562 126.406,5.04688 C126.531,4.82812 126.594,4.53646 126.594,4.17188 C126.594,3.55729 126.406,3.0625 126.031,2.6875 C125.76,2.41667 125.318,2.28125 124.703,2.28125 C124.339,2.28125 123.927,2.38542 123.469,2.59375 C123.26,2.6875 122.911,2.89062 122.422,3.20312 L122.422,2.64062 C122.63,2.49479 122.932,2.32812 123.328,2.14062 C123.786,1.94271 124.24,1.83854 124.688,1.82812 C125.375,1.82812 125.953,2.01042 126.422,2.375 C126.88,2.72917 127.109,3.3125 127.109,4.125 C127.109,4.45833 127.047,4.77083 126.922,5.0625 C126.776,5.40625 126.552,5.75521 126.25,6.10938 C126.156,6.21354 125.87,6.51042 125.391,7 L122.891,9.5625 M132.047,6 C131.443,6 130.969,6.16667 130.625,6.5 C130.292,6.83333 130.125,7.28906 130.125,7.86719 C130.125,8.44531 130.292,8.90104 130.625,9.23438 C130.969,9.56771 131.44,9.73438 132.039,9.73438 C132.638,9.73438 133.109,9.56771 133.453,9.23438 C133.807,8.90104 133.984,8.44792 133.984,7.875 C133.984,7.29167 133.812,6.83333 133.469,6.5 C133.125,6.16667 132.651,6 132.047,6 M130.953,5.73438 C130.609,5.59896 130.328,5.38021 130.109,5.07812 C129.87,4.76562 129.75,4.38021 129.75,3.92188 C129.75,3.27604 129.956,2.76562 130.367,2.39062 C130.779,2.01562 131.339,1.82812 132.047,1.82812 C132.755,1.82812 133.312,2.01562 133.719,2.39062 C134.125,2.76562 134.328,3.27604 134.328,3.92188 C134.328,4.39062 134.214,4.77604 133.984,5.07812 C133.745,5.39062 133.464,5.60938 133.141,5.73438 C133.536,5.85938 133.859,6.09375 134.109,6.4375 C134.37,6.79167 134.5,7.22917 134.5,7.75 C134.5,8.52083 134.292,9.11458 133.875,9.53125 C133.448,9.94792 132.839,10.1562 132.047,10.1562 C131.255,10.1562 130.646,9.94792 130.219,9.53125 C129.792,9.11458 129.578,8.52083 129.578,7.75 C129.578,7.22917 129.708,6.79167 129.969,6.4375 C130.26,6.08333 130.589,5.84896 130.953,5.73438 M130.758,2.71094 C130.451,2.9974 130.297,3.40104 130.297,3.92188 C130.297,4.44271 130.451,4.84896 130.758,5.14062 C131.065,5.43229 131.495,5.57812 132.047,5.57812 C132.589,5.57812 133.016,5.43229 133.328,5.14062 C133.641,4.84896 133.797,4.44271 133.797,3.92188 C133.797,3.40104 133.641,3 133.328,2.71875 C133.016,2.42708 132.589,2.28125 132.047,2.28125 C131.495,2.28125 131.065,2.42448 130.758,2.71094 M139.031,6 C138.427,6 137.953,6.16667 137.609,6.5 C137.276,6.83333 137.109,7.28906 137.109,7.86719 C137.109,8.44531 137.276,8.90104 137.609,9.23438 C137.953,9.56771 138.424,9.73438 139.023,9.73438 C139.622,9.73438 140.094,9.56771 140.438,9.23438 C140.792,8.90104 140.969,8.44792 140.969,7.875 C140.969,7.29167 140.797,6.83333 140.453,6.5 C140.109,6.16667 139.635,6 139.031,6 M137.938,5.73438 C137.594,5.59896 137.312,5.38021 137.094,5.07812 C136.854,4.76562 136.734,4.38021 136.734,3.92188 C136.734,3.27604 136.94,2.76562 137.352,2.39062 C137.763,2.01562 138.323,1.82812 139.031,1.82812 C139.74,1.82812 140.297,2.01562 140.703,2.39062 C141.109,2.76562 141.312,3.27604 141.312,3.92188 C141.312,4.39062 141.198,4.77604 140.969,5.07812 C140.729,5.39062 140.448,5.60938 140.125,5.73438 C140.521,5.85938 140.844,6.09375 141.094,6.4375 C141.354,6.79167 141.484,7.22917 141.484,7.75 C141.484,8.52083 141.276,9.11458 140.859,9.53125 C140.432,9.94792 139.823,10.1562 139.031,10.1562 C138.24,10.1562 137.63,9.94792 137.203,9.53125 C136.776,9.11458 136.562,8.52083 136.562,7.75 C136.562,7.22917 136.693,6.79167 136.953,6.4375 C137.245,6.08333 137.573,5.84896 137.938,5.73438 M137.742,2.71094 C137.435,2.9974 137.281,3.40104 137.281,3.92188 C137.281,4.44271 137.435,4.84896 137.742,5.14062 C138.049,5.43229 138.479,5.57812 139.031,5.57812 C139.573,5.57812 140,5.43229 140.312,5.14062 C140.625,4.84896 140.781,4.44271 140.781,3.92188 C140.781,3.40104 140.625,3 140.312,2.71875 C140,2.42708 139.573,2.28125 139.031,2.28125 C138.479,2.28125 138.049,2.42448 137.742,2.71094 M143.844,9.5625 L148.406,9.5625 L148.406,10 L143.281,10 L143.281,9.4375 L145.281,7.35938 C145.771,6.85938 146.219,6.39583 146.625,5.96875 C146.99,5.57292 147.234,5.26562 147.359,5.04688 C147.484,4.82812 147.547,4.53646 147.547,4.17188 C147.547,3.55729 147.359,3.0625 146.984,2.6875 C146.714,2.41667 146.271,2.28125 145.656,2.28125 C145.292,2.28125 144.88,2.38542 144.422,2.59375 C144.214,2.6875 143.865,2.89062 143.375,3.20312 L143.375,2.64062 C143.583,2.49479 143.885,2.32812 144.281,2.14062 C144.74,1.94271 145.193,1.83854 145.641,1.82812 C146.328,1.82812 146.906,2.01042 147.375,2.375 C147.833,2.72917 148.062,3.3125 148.062,4.125 C148.062,4.45833 148,4.77083 147.875,5.0625 C147.729,5.40625 147.505,5.75521 147.203,6.10938 C147.109,6.21354 146.823,6.51042 146.344,7 L143.844,9.5625 M153.922,2.28125 L150.594,7.4375 L153.922,7.4375 L153.922,2.28125 M153.5,1.98438 L154.469,1.98438 L154.469,7.4375 L155.625,7.4375 L155.625,7.875 L154.469,7.875 L154.469,10 L153.922,10 L153.922,7.875 L150.031,7.875 L150.031,7.3125 L153.5,1.98438 M160.906,2.28125 L157.578,7.4375 L160.906,7.4375 L160.906,2.28125 M160.484,1.98438 L161.453,1.98438 L161.453,7.4375 L162.609,7.4375 L162.609,7.875 L161.453,7.875 L161.453,10 L160.906,10 L160.906,7.875 L157.016,7.875 L157.016,7.3125 L160.484,1.98438 M165.109,9.5625 L166.875,9.5625 L166.875,2.46875 L164.672,3.35938 L164.672,2.85938 L166.859,1.98438 L167.406,1.98438 L167.406,9.5625 L169.188,9.5625 L169.188,10 L165.109,10 L165.109,9.5625 M175.438,5.92969 C175.104,5.53906 174.654,5.34375 174.086,5.34375 C173.518,5.34375 173.068,5.53906 172.734,5.92969 C172.401,6.32031 172.234,6.85417 172.234,7.53125 C172.234,8.20833 172.401,8.74219 172.734,9.13281 C173.068,9.52344 173.518,9.71875 174.086,9.71875 C174.654,9.71875 175.104,9.52344 175.438,9.13281 C175.771,8.74219 175.938,8.20833 175.938,7.53125 C175.938,6.85417 175.771,6.32031 175.438,5.92969 M176.094,2.15625 L176.094,2.73438 C175.844,2.57812 175.589,2.46354 175.328,2.39062 C175.078,2.30729 174.828,2.26562 174.578,2.26562 C173.516,2.26562 172.771,2.79167 172.344,3.84375 C172.146,4.3125 172.057,5.11979 172.078,6.26562 C172.255,5.86979 172.484,5.5625 172.766,5.34375 C173.13,5.05208 173.594,4.90625 174.156,4.90625 C174.823,4.90625 175.38,5.14062 175.828,5.60938 C176.276,6.08854 176.5,6.69271 176.5,7.42188 C176.5,8.24479 176.281,8.90625 175.844,9.40625 C175.406,9.90625 174.833,10.1562 174.125,10.1562 C173.281,10.1562 172.635,9.80208 172.188,9.09375 C171.74,8.375 171.516,7.34375 171.516,6 C171.516,4.5625 171.792,3.50521 172.344,2.82812 C172.885,2.16146 173.62,1.82812 174.547,1.82812 C174.797,1.82812 175.047,1.85938 175.297,1.92188 C175.547,1.97396 175.812,2.05208 176.094,2.15625 "/>
</g>

<g fill="none" stroke="#000000" stroke-opacity="1" stroke-width="1" stroke-linecap="square" stroke-linejoin="bevel" transform="matrix(2,0,0,2,1310.28,23)"
font-family="sans" font-size="11" font-weight="100" font-style="normal" 
>
</g>

<g fill="none" stroke="#000000" stroke-opacity="1" stroke-width="1" stroke-linecap="square" stroke-linejoin="bevel" transform="matrix(2,0,0,2,1310.28,23)"
font-family="Sans Serif" font-size="9" font-weight="400" font-style="normal" 
>
</g>

<g fill="none" stroke="#000000" stroke-opacity="1" stroke-width="1" stroke-linecap="square" stroke-linejoin="bevel" transform="matrix(2,0,0,2,0.0024,150)"
font-family="Sans Serif" font-size="9" font-weight="400" font-style="normal" 
>
</g>

<g fill="none" stroke="#000000" stroke-opacity="1" stroke-width="1" stroke-linecap="square" stroke-linejoin="bevel" transform="matrix(2,0,0,2,0.0024,150)"
font-family="Sans Serif" font-size="9" font-weight="400" font-style="normal" 
>
</g>

<g fill="none" stroke="#000000" stroke-opacity="1" stroke-width="1" stroke-linecap="square" stroke-linejoin="bevel" transform="matrix(2,0,0,2,0.0024,150)"
font-family="Sans Serif" font-size="9" font-weight="400" font-style="normal" 
>
</g>

<g fill="none" stroke="#000000" stroke-opacity="1" stroke-width="1" stroke-linecap="square" stroke-linejoin="round" transform="matrix(2,0,0,2,0.0024,150)"
font-family="Sans Serif" font-size="9" font-weight="400" font-style="normal" 
>
<path vector-effect="none" fill-rule="evenodd" d="M485.81,-25.705 C529.31,-31.002 588.09,-38.158 638.46,-44.29 "/>
</g>

<g fill="none" stroke="#000000" stroke-opacity="1" stroke-width="1" stroke-linecap="square" stroke-linejoin="bevel" transform="matrix(2,0,0,2,0.0024,150)"
font-family="Sans Serif" font-size="9" font-weight="400" font-style="normal" 
>
</g>

<g fill="none" stroke="#000000" stroke-opacity="1" stroke-width="1" stroke-linecap="square" stroke-linejoin="bevel" transform="matrix(2,0,0,2,999.477,40)"
font-family="Sans Serif" font-size="9" font-weight="400" font-style="normal" 
>
</g>

<g fill="none" stroke="#000000" stroke-opacity="1" stroke-width="1" stroke-linecap="square" stroke-linejoin="bevel" transform="matrix(2,0,0,2,999.477,40)"
font-family="sans" font-size="11" font-weight="100" font-style="normal" 
>
</g>

<g fill="#000000" fill-opacity="1" stroke="#000000" stroke-opacity="1" stroke-width="1" stroke-linecap="square" stroke-linejoin="round" transform="matrix(2,0,0,2,999.477,40)"
font-family="sans" font-size="11" font-weight="100" font-style="normal" 
>
<path vector-effect="none" fill-rule="nonzero" d="M2.96875,1.98438 L3.53125,1.98438 L0.734375,11.0156 L0.171875,11.0156 L2.96875,1.98438 M5.46875,2.28125 L5.46875,3.98438 L7.5,3.98438 L7.5,4.40625 L5.46875,4.40625 L5.46875,8.01562 C5.46875,8.47396 5.52604,8.79688 5.64062,8.98438 C5.89062,9.38021 6.25,9.57812 6.71875,9.57812 L7.5,9.57812 L7.5,10 L6.73438,10 C6.24479,10 5.82812,9.85677 5.48438,9.57031 C5.14062,9.28385 4.96875,8.76562 4.96875,8.01562 L4.96875,4.40625 L4.25,4.40625 L4.25,3.98438 L4.96875,3.98438 L4.96875,2.28125 L5.46875,2.28125 M9.20312,7.60938 L9.20312,3.98438 L9.6875,3.98438 L9.6875,7.57812 C9.6875,8.35938 9.8125,8.90885 10.0625,9.22656 C10.3125,9.54427 10.6823,9.70312 11.1719,9.70312 C11.7448,9.70312 12.2344,9.53125 12.6406,9.1875 C13.0469,8.84375 13.25,8.24479 13.25,7.39062 L13.25,3.98438 L13.7344,3.98438 L13.7344,10 L13.25,10 L13.25,8.875 C13.0729,9.23958 12.8385,9.51562 12.5469,9.70312 C12.1302,9.99479 11.6667,10.1406 11.1562,10.1406 C10.5625,10.1406 10.0885,9.9375 9.73438,9.53125 C9.38021,9.13542 9.20312,8.49479 9.20312,7.60938 M19.5,4.40625 C19.4167,4.36458 19.3073,4.33333 19.1719,4.3125 C19.0469,4.29167 18.8958,4.28125 18.7188,4.28125 C18.1042,4.28125 17.599,4.50521 17.2031,4.95312 C16.8802,5.31771 16.7188,5.94271 16.7188,6.82812 L16.7188,10 L16.2344,10 L16.2344,3.98438 L16.7188,3.98438 L16.7188,5.10938 C16.8854,4.78646 17.1146,4.51562 17.4062,4.29688 C17.8021,3.99479 18.2708,3.84375 18.8125,3.84375 C18.9583,3.84375 19.0833,3.84896 19.1875,3.85938 C19.2917,3.85938 19.3958,3.86979 19.5,3.89062 L19.5,4.40625 M21.2656,2.28125 L21.2656,3.98438 L23.2969,3.98438 L23.2969,4.40625 L21.2656,4.40625 L21.2656,8.01562 C21.2656,8.47396 21.3229,8.79688 21.4375,8.98438 C21.6875,9.38021 22.0469,9.57812 22.5156,9.57812 L23.2969,9.57812 L23.2969,10 L22.5312,10 C22.0417,10 21.625,9.85677 21.2812,9.57031 C20.9375,9.28385 20.7656,8.76562 20.7656,8.01562 L20.7656,4.40625 L20.0469,4.40625 L20.0469,3.98438 L20.7656,3.98438 L20.7656,2.28125 L21.2656,2.28125 M25.0625,1.64062 L25.5469,1.64062 L25.5469,10 L25.0625,10 L25.0625,1.64062 M32.7969,6.75 L32.7969,7.0625 L28.2344,7.0625 C28.2344,8.02083 28.4219,8.69792 28.7969,9.09375 C29.2135,9.52083 29.8281,9.73438 30.6406,9.73438 C30.8594,9.73438 31.1458,9.6875 31.5,9.59375 C31.8542,9.5 32.2083,9.35938 32.5625,9.17188 L32.5625,9.6875 C32.2083,9.84375 31.8464,9.96094 31.4766,10.0391 C31.1068,10.1172 30.8125,10.1562 30.5938,10.1562 C29.6667,10.1562 28.9688,9.90625 28.5,9.40625 C27.9896,8.875 27.7344,8.09375 27.7344,7.0625 C27.7344,5.98958 27.9635,5.1875 28.4219,4.65625 C28.901,4.11458 29.5677,3.84375 30.4219,3.84375 C31.2031,3.84375 31.7969,4.10417 32.2031,4.625 C32.599,5.16667 32.7969,5.875 32.7969,6.75 M32.2969,6.64062 C32.2969,5.79688 32.1042,5.18229 31.7188,4.79688 C31.4062,4.45312 30.974,4.28125 30.4219,4.28125 C29.8281,4.28125 29.3281,4.45833 28.9219,4.8125 C28.5469,5.14583 28.3229,5.75521 28.25,6.64062 L32.2969,6.64062 M35.2656,9.5625 L37.0312,9.5625 L37.0312,2.46875 L34.8281,3.35938 L34.8281,2.85938 L37.0156,1.98438 L37.5625,1.98438 L37.5625,9.5625 L39.3438,9.5625 L39.3438,10 L35.2656,10 L35.2656,9.5625 M43.5781,1.98438 L44.1406,1.98438 L41.3438,11.0156 L40.7812,11.0156 L43.5781,1.98438 M49.6719,4.28125 L49.6719,4.79688 C49.3802,4.61979 49.1354,4.5 48.9375,4.4375 C48.6042,4.33333 48.2865,4.28125 47.9844,4.28125 C47.1198,4.28125 46.5,4.5026 46.125,4.94531 C45.75,5.38802 45.5625,6.07292 45.5625,7 C45.5625,7.9375 45.75,8.6276 46.125,9.07031 C46.5,9.51302 47.1198,9.73438 47.9844,9.73438 C48.276,9.73438 48.5573,9.69271 48.8281,9.60938 C49.1198,9.53646 49.401,9.42188 49.6719,9.26562 L49.6719,9.76562 C49.401,9.90104 49.1198,10 48.8281,10.0625 C48.526,10.125 48.2292,10.1562 47.9375,10.1562 C47.0625,10.1562 46.3646,9.91667 45.8438,9.4375 C45.3229,8.95833 45.0625,8.14323 45.0625,6.99219 C45.0625,5.84115 45.3229,5.02604 45.8438,4.54688 C46.3646,4.07812 47.0625,3.84375 47.9375,3.84375 C48.2292,3.84375 48.5365,3.88542 48.8594,3.96875 C49.1823,4.04167 49.4531,4.14583 49.6719,4.28125 M55.1875,5.01562 C54.8333,4.52604 54.349,4.28125 53.7344,4.28125 C53.1198,4.28125 52.6354,4.52604 52.2812,5.01562 C51.9271,5.49479 51.75,6.15104 51.75,6.98438 C51.75,7.83854 51.9271,8.51042 52.2812,9 C52.6354,9.48958 53.1198,9.73438 53.7344,9.73438 C54.349,9.73438 54.8333,9.48958 55.1875,9 C55.5417,8.5 55.7188,7.82812 55.7188,6.98438 C55.7188,6.16146 55.5417,5.50521 55.1875,5.01562 M53.7344,3.84375 C54.4948,3.84375 55.099,4.13021 55.5469,4.70312 C55.9948,5.27604 56.2188,6.03646 56.2188,6.98438 C56.2188,7.97396 55.9948,8.75521 55.5469,9.32812 C55.099,9.90104 54.4948,10.1875 53.7344,10.1875 C52.9531,10.1875 52.3385,9.90104 51.8906,9.32812 C51.4531,8.75521 51.2344,7.97396 51.2344,6.98438 C51.2344,6.02604 51.4583,5.26302 51.9062,4.69531 C52.3542,4.1276 52.9635,3.84375 53.7344,3.84375 M58.3281,1.64062 L58.8125,1.64062 L58.8125,10 L58.3281,10 L58.3281,1.64062 M64.9531,5.01562 C64.599,4.52604 64.1146,4.28125 63.5,4.28125 C62.8854,4.28125 62.401,4.52604 62.0469,5.01562 C61.6927,5.49479 61.5156,6.15104 61.5156,6.98438 C61.5156,7.83854 61.6927,8.51042 62.0469,9 C62.401,9.48958 62.8854,9.73438 63.5,9.73438 C64.1146,9.73438 64.599,9.48958 64.9531,9 C65.3073,8.5 65.4844,7.82812 65.4844,6.98438 C65.4844,6.16146 65.3073,5.50521 64.9531,5.01562 M63.5,3.84375 C64.2604,3.84375 64.8646,4.13021 65.3125,4.70312 C65.7604,5.27604 65.9844,6.03646 65.9844,6.98438 C65.9844,7.97396 65.7604,8.75521 65.3125,9.32812 C64.8646,9.90104 64.2604,10.1875 63.5,10.1875 C62.7188,10.1875 62.1042,9.90104 61.6562,9.32812 C61.2188,8.75521 61,7.97396 61,6.98438 C61,6.02604 61.224,5.26302 61.6719,4.69531 C62.1198,4.1276 62.7292,3.84375 63.5,3.84375 M71.3594,4.40625 C71.276,4.36458 71.1667,4.33333 71.0312,4.3125 C70.9062,4.29167 70.7552,4.28125 70.5781,4.28125 C69.9635,4.28125 69.4583,4.50521 69.0625,4.95312 C68.7396,5.31771 68.5781,5.94271 68.5781,6.82812 L68.5781,10 L68.0938,10 L68.0938,3.98438 L68.5781,3.98438 L68.5781,5.10938 C68.7448,4.78646 68.974,4.51562 69.2656,4.29688 C69.6615,3.99479 70.1302,3.84375 70.6719,3.84375 C70.8177,3.84375 70.9427,3.84896 71.0469,3.85938 C71.151,3.85938 71.2552,3.86979 71.3594,3.89062 L71.3594,4.40625 M76.9688,12.1719 L76.9688,12.5938 L71.25,12.5938 L71.25,12.1719 L76.9688,12.1719 M81.5156,4.15625 L81.5156,4.70312 C81.1615,4.50521 80.9427,4.39583 80.8594,4.375 C80.6094,4.32292 80.2969,4.29167 79.9219,4.28125 C79.3594,4.28125 78.9167,4.39062 78.5938,4.60938 C78.3438,4.79688 78.2188,5.11458 78.2188,5.5625 C78.2188,5.875 78.3385,6.11458 78.5781,6.28125 C78.8177,6.46875 79.1667,6.61458 79.625,6.71875 L79.9688,6.78125 C80.5417,6.90625 80.974,7.08333 81.2656,7.3125 C81.6094,7.58333 81.7865,7.92708 81.7969,8.34375 C81.7969,8.90625 81.6302,9.34896 81.2969,9.67188 C80.9427,9.99479 80.3646,10.1562 79.5625,10.1562 C79.125,10.1562 78.7917,10.125 78.5625,10.0625 C78.2812,9.98958 77.9896,9.89583 77.6875,9.78125 L77.6875,9.15625 C78.125,9.40625 78.4062,9.55208 78.5312,9.59375 C78.8854,9.6875 79.2396,9.73438 79.5938,9.73438 C80.1667,9.73438 80.5938,9.61458 80.875,9.375 C81.1562,9.125 81.2969,8.80729 81.2969,8.42188 C81.2969,8.08854 81.2031,7.84896 81.0156,7.70312 C80.7448,7.48438 80.3177,7.30729 79.7344,7.17188 L79.3906,7.09375 C78.8802,6.96875 78.4948,6.80208 78.2344,6.59375 C77.901,6.32292 77.7344,5.99479 77.7344,5.60938 C77.7344,4.98438 77.9349,4.53385 78.3359,4.25781 C78.737,3.98177 79.2292,3.84375 79.8125,3.84375 C80.3125,3.84375 80.6562,3.86979 80.8438,3.92188 C81.0729,3.98438 81.2969,4.0625 81.5156,4.15625 M88.5156,6.75 L88.5156,7.0625 L83.9531,7.0625 C83.9531,8.02083 84.1406,8.69792 84.5156,9.09375 C84.9323,9.52083 85.5469,9.73438 86.3594,9.73438 C86.5781,9.73438 86.8646,9.6875 87.2188,9.59375 C87.5729,9.5 87.9271,9.35938 88.2812,9.17188 L88.2812,9.6875 C87.9271,9.84375 87.5651,9.96094 87.1953,10.0391 C86.8255,10.1172 86.5312,10.1562 86.3125,10.1562 C85.3854,10.1562 84.6875,9.90625 84.2188,9.40625 C83.7083,8.875 83.4531,8.09375 83.4531,7.0625 C83.4531,5.98958 83.6823,5.1875 84.1406,4.65625 C84.6198,4.11458 85.2865,3.84375 86.1406,3.84375 C86.9219,3.84375 87.5156,4.10417 87.9219,4.625 C88.3177,5.16667 88.5156,5.875 88.5156,6.75 M88.0156,6.64062 C88.0156,5.79688 87.8229,5.18229 87.4375,4.79688 C87.125,4.45312 86.6927,4.28125 86.1406,4.28125 C85.5469,4.28125 85.0469,4.45833 84.6406,4.8125 C84.2656,5.14583 84.0417,5.75521 83.9688,6.64062 L88.0156,6.64062 M95.1406,6.375 L95.1406,10 L94.6406,10 L94.6406,6.40625 C94.6406,5.625 94.5156,5.07552 94.2656,4.75781 C94.0156,4.4401 93.6458,4.28125 93.1562,4.28125 C92.5833,4.28125 92.099,4.45312 91.7031,4.79688 C91.2865,5.14062 91.0781,5.73958 91.0781,6.59375 L91.0781,10 L90.5938,10 L90.5938,3.98438 L91.0781,3.98438 L91.0781,5.10938 C91.2552,4.74479 91.4896,4.46875 91.7812,4.28125 C92.1979,3.98958 92.6615,3.84375 93.1719,3.84375 C93.776,3.84375 94.2552,4.04688 94.6094,4.45312 C94.9635,4.84896 95.1406,5.48958 95.1406,6.375 M100.969,4.15625 L100.969,4.70312 C100.615,4.50521 100.396,4.39583 100.312,4.375 C100.062,4.32292 99.75,4.29167 99.375,4.28125 C98.8125,4.28125 98.3698,4.39062 98.0469,4.60938 C97.7969,4.79688 97.6719,5.11458 97.6719,5.5625 C97.6719,5.875 97.7917,6.11458 98.0312,6.28125 C98.2708,6.46875 98.6198,6.61458 99.0781,6.71875 L99.4219,6.78125 C99.9948,6.90625 100.427,7.08333 100.719,7.3125 C101.062,7.58333 101.24,7.92708 101.25,8.34375 C101.25,8.90625 101.083,9.34896 100.75,9.67188 C100.396,9.99479 99.8177,10.1562 99.0156,10.1562 C98.5781,10.1562 98.2448,10.125 98.0156,10.0625 C97.7344,9.98958 97.4427,9.89583 97.1406,9.78125 L97.1406,9.15625 C97.5781,9.40625 97.8594,9.55208 97.9844,9.59375 C98.3385,9.6875 98.6927,9.73438 99.0469,9.73438 C99.6198,9.73438 100.047,9.61458 100.328,9.375 C100.609,9.125 100.75,8.80729 100.75,8.42188 C100.75,8.08854 100.656,7.84896 100.469,7.70312 C100.198,7.48438 99.7708,7.30729 99.1875,7.17188 L98.8438,7.09375 C98.3333,6.96875 97.9479,6.80208 97.6875,6.59375 C97.3542,6.32292 97.1875,5.99479 97.1875,5.60938 C97.1875,4.98438 97.388,4.53385 97.7891,4.25781 C98.1901,3.98177 98.6823,3.84375 99.2656,3.84375 C99.7656,3.84375 100.109,3.86979 100.297,3.92188 C100.526,3.98438 100.75,4.0625 100.969,4.15625 M106.859,5.01562 C106.505,4.52604 106.021,4.28125 105.406,4.28125 C104.792,4.28125 104.307,4.52604 103.953,5.01562 C103.599,5.49479 103.422,6.15104 103.422,6.98438 C103.422,7.83854 103.599,8.51042 103.953,9 C104.307,9.48958 104.792,9.73438 105.406,9.73438 C106.021,9.73438 106.505,9.48958 106.859,9 C107.214,8.5 107.391,7.82812 107.391,6.98438 C107.391,6.16146 107.214,5.50521 106.859,5.01562 M105.406,3.84375 C106.167,3.84375 106.771,4.13021 107.219,4.70312 C107.667,5.27604 107.891,6.03646 107.891,6.98438 C107.891,7.97396 107.667,8.75521 107.219,9.32812 C106.771,9.90104 106.167,10.1875 105.406,10.1875 C104.625,10.1875 104.01,9.90104 103.562,9.32812 C103.125,8.75521 102.906,7.97396 102.906,6.98438 C102.906,6.02604 103.13,5.26302 103.578,4.69531 C104.026,4.1276 104.635,3.84375 105.406,3.84375 M113.266,4.40625 C113.182,4.36458 113.073,4.33333 112.938,4.3125 C112.812,4.29167 112.661,4.28125 112.484,4.28125 C111.87,4.28125 111.365,4.50521 110.969,4.95312 C110.646,5.31771 110.484,5.94271 110.484,6.82812 L110.484,10 L110,10 L110,3.98438 L110.484,3.98438 L110.484,5.10938 C110.651,4.78646 110.88,4.51562 111.172,4.29688 C111.568,3.99479 112.036,3.84375 112.578,3.84375 C112.724,3.84375 112.849,3.84896 112.953,3.85938 C113.057,3.85938 113.161,3.86979 113.266,3.89062 L113.266,4.40625"/>
</g>

<g fill="none" stroke="#000000" stroke-opacity="1" stroke-width="1" stroke-linecap="square" stroke-linejoin="bevel" transform="matrix(2,0,0,2,999.477,40)"
font-family="sans" font-size="11" font-weight="100" font-style="normal" 
>
</g>

<g fill="none" stroke="#000000" stroke-opacity="1" stroke-width="1" stroke-linecap="square" stroke-linejoin="bevel" transform="matrix(2,0,0,2,999.477,40)"
font-family="Sans Serif" font-size="9" font-weight="400" font-style="normal" 
>
</g>

<g fill="none" stroke="#000000" stroke-opacity="1" stroke-width="1" stroke-linecap="square" stroke-linejoin="bevel" transform="matrix(2,0,0,2,0.0024,150)"
font-family="Sans Serif" font-size="9" font-weight="400" font-style="normal" 
>
</g>

<g fill="#000000" fill-opacity="1" stroke="#000000" stroke-opacity="1" stroke-width="1" stroke-linecap="square" stroke-linejoin="round" transform="matrix(2,0,0,2,0.0024,150)"
font-family="Sans Serif" font-size="9" font-weight="400" font-style="normal" 
>
<path vector-effect="none" fill-rule="evenodd" d="M638.46,-44.29 L638.884,-40.804 L648.42,-45.502 L638.036,-47.776 L638.46,-44.29"/>
</g>

<g fill="none" stroke="#000000" stroke-opacity="1" stroke-width="1" stroke-linecap="square" stroke-linejoin="bevel" transform="matrix(2,0,0,2,0.0024,150)"
font-family="Sans Serif" font-size="9" font-weight="400" font-style="normal" 
>
</g>

<g fill="none" stroke="#000000" stroke-opacity="1" stroke-width="1" stroke-linecap="square" stroke-linejoin="bevel" transform="matrix(2,0,0,2,0.0024,150)"
font-family="Sans Serif" font-size="9" font-weight="400" font-style="normal" 
>
</g>

<g fill="none" stroke="#000000" stroke-opacity="1" stroke-width="1" stroke-linecap="square" stroke-linejoin="bevel" transform="matrix(2,0,0,2,0.0024,150)"
font-family="Sans Serif" font-size="9" font-weight="400" font-style="normal" 
>
</g>

<g fill="none" stroke="#000000" stroke-opacity="1" stroke-width="1" stroke-linecap="square" stroke-linejoin="bevel" transform="matrix(2,0,0,2,0.0024,150)"
font-family="Sans Serif" font-size="9" font-weight="400" font-style="normal" 
>
</g>

<g fill="none" stroke="#000000" stroke-opacity="1" stroke-width="1" stroke-linecap="square" stroke-linejoin="round" transform="matrix(2,0,0,2,0.0024,150)"
font-family="Sans Serif" font-size="9" font-weight="400" font-style="normal" 
>
<path vector-effect="none" fill-rule="evenodd" d="M212.02,-40.694 C255.11,-36.005 305.37,-30.534 345.75,-26.139 "/>
</g>

<g fill="none" stroke="#000000" stroke-opacity="1" stroke-width="1" stroke-linecap="square" stroke-linejoin="bevel" transform="matrix(2,0,0,2,0.0024,150)"
font-family="Sans Serif" font-size="9" font-weight="400" font-style="normal" 
>
</g>

<g fill="none" stroke="#000000" stroke-opacity="1" stroke-width="1" stroke-linecap="square" stroke-linejoin="bevel" transform="matrix(2,0,0,2,483.3,46)"
font-family="Sans Serif" font-size="9" font-weight="400" font-style="normal" 
>
</g>

<g fill="none" stroke="#000000" stroke-opacity="1" stroke-width="1" stroke-linecap="square" stroke-linejoin="bevel" transform="matrix(2,0,0,2,483.3,46)"
font-family="sans" font-size="11" font-weight="100" font-style="normal" 
>
</g>

<g fill="#000000" fill-opacity="1" stroke="#000000" stroke-opacity="1" stroke-width="1" stroke-linecap="square" stroke-linejoin="round" transform="matrix(2,0,0,2,483.3,46)"
font-family="sans" font-size="11" font-weight="100" font-style="normal" 
>
<path vector-effect="none" fill-rule="nonzero" d="M2.96875,1.98438 L3.53125,1.98438 L0.734375,11.0156 L0.171875,11.0156 L2.96875,1.98438 M9.28125,5.29688 C9.46875,4.80729 9.76042,4.44271 10.1562,4.20312 C10.5417,3.96354 10.9948,3.84375 11.5156,3.84375 C12.0365,3.84375 12.4531,4.02604 12.7656,4.39062 C13.0885,4.75521 13.25,5.41667 13.25,6.375 L13.25,10 L12.7656,10 L12.7656,6.40625 C12.7656,5.57292 12.651,5.01042 12.4219,4.71875 C12.1927,4.42708 11.8854,4.28125 11.5,4.28125 C10.9479,4.28125 10.4635,4.44792 10.0469,4.78125 C9.57812,5.15625 9.34375,5.76042 9.34375,6.59375 L9.34375,10 L8.85938,10 L8.85938,6.40625 C8.85938,5.60417 8.7474,5.04948 8.52344,4.74219 C8.29948,4.4349 7.98958,4.28125 7.59375,4.28125 C7.04167,4.28125 6.55729,4.45312 6.14062,4.79688 C5.67188,5.16146 5.4375,5.76042 5.4375,6.59375 L5.4375,10 L4.95312,10 L4.95312,3.98438 L5.4375,3.98438 L5.4375,5.10938 C5.61458,4.71354 5.89062,4.40104 6.26562,4.17188 C6.63021,3.95312 7.08333,3.84375 7.625,3.84375 C7.97917,3.84375 8.31771,3.95833 8.64062,4.1875 C8.89062,4.375 9.10417,4.74479 9.28125,5.29688 M17.6875,10.5625 C17.4688,11.0938 17.2344,11.4635 16.9844,11.6719 C16.651,11.9427 16.3281,12.0781 16.0156,12.0781 L15.2812,12.0781 L15.2812,11.6562 L15.9062,11.6562 C16.1667,11.6562 16.3958,11.5729 16.5938,11.4062 C16.8438,11.1875 17.0521,10.8698 17.2188,10.4531 L17.3906,10 L15,3.98438 L15.5312,3.98438 L17.6562,9.34375 L19.7969,3.98438 L20.3281,3.98438 L17.6875,10.5625 M22.6719,2.28125 L22.6719,3.98438 L24.7031,3.98438 L24.7031,4.40625 L22.6719,4.40625 L22.6719,8.01562 C22.6719,8.47396 22.7292,8.79688 22.8438,8.98438 C23.0938,9.38021 23.4531,9.57812 23.9219,9.57812 L24.7031,9.57812 L24.7031,10 L23.9375,10 C23.4479,10 23.0312,9.85677 22.6875,9.57031 C22.3438,9.28385 22.1719,8.76562 22.1719,8.01562 L22.1719,4.40625 L21.4531,4.40625 L21.4531,3.98438 L22.1719,3.98438 L22.1719,2.28125 L22.6719,2.28125 M26.4062,7.60938 L26.4062,3.98438 L26.8906,3.98438 L26.8906,7.57812 C26.8906,8.35938 27.0156,8.90885 27.2656,9.22656 C27.5156,9.54427 27.8854,9.70312 28.375,9.70312 C28.9479,9.70312 29.4375,9.53125 29.8438,9.1875 C30.25,8.84375 30.4531,8.24479 30.4531,7.39062 L30.4531,3.98438 L30.9375,3.98438 L30.9375,10 L30.4531,10 L30.4531,8.875 C30.276,9.23958 30.0417,9.51562 29.75,9.70312 C29.3333,9.99479 28.8698,10.1406 28.3594,10.1406 C27.7656,10.1406 27.2917,9.9375 26.9375,9.53125 C26.5833,9.13542 26.4062,8.49479 26.4062,7.60938 M36.7031,4.40625 C36.6198,4.36458 36.5104,4.33333 36.375,4.3125 C36.25,4.29167 36.099,4.28125 35.9219,4.28125 C35.3073,4.28125 34.8021,4.50521 34.4062,4.95312 C34.0833,5.31771 33.9219,5.94271 33.9219,6.82812 L33.9219,10 L33.4375,10 L33.4375,3.98438 L33.9219,3.98438 L33.9219,5.10938 C34.0885,4.78646 34.3177,4.51562 34.6094,4.29688 C35.0052,3.99479 35.474,3.84375 36.0156,3.84375 C36.1615,3.84375 36.2865,3.84896 36.3906,3.85938 C36.4948,3.85938 36.599,3.86979 36.7031,3.89062 L36.7031,4.40625 M38.4688,2.28125 L38.4688,3.98438 L40.5,3.98438 L40.5,4.40625 L38.4688,4.40625 L38.4688,8.01562 C38.4688,8.47396 38.526,8.79688 38.6406,8.98438 C38.8906,9.38021 39.25,9.57812 39.7188,9.57812 L40.5,9.57812 L40.5,10 L39.7344,10 C39.2448,10 38.8281,9.85677 38.4844,9.57031 C38.1406,9.28385 37.9688,8.76562 37.9688,8.01562 L37.9688,4.40625 L37.25,4.40625 L37.25,3.98438 L37.9688,3.98438 L37.9688,2.28125 L38.4688,2.28125 M42.2656,1.64062 L42.75,1.64062 L42.75,10 L42.2656,10 L42.2656,1.64062 M50,6.75 L50,7.0625 L45.4375,7.0625 C45.4375,8.02083 45.625,8.69792 46,9.09375 C46.4167,9.52083 47.0312,9.73438 47.8438,9.73438 C48.0625,9.73438 48.349,9.6875 48.7031,9.59375 C49.0573,9.5 49.4115,9.35938 49.7656,9.17188 L49.7656,9.6875 C49.4115,9.84375 49.0495,9.96094 48.6797,10.0391 C48.3099,10.1172 48.0156,10.1562 47.7969,10.1562 C46.8698,10.1562 46.1719,9.90625 45.7031,9.40625 C45.1927,8.875 44.9375,8.09375 44.9375,7.0625 C44.9375,5.98958 45.1667,5.1875 45.625,4.65625 C46.1042,4.11458 46.7708,3.84375 47.625,3.84375 C48.4062,3.84375 49,4.10417 49.4062,4.625 C49.8021,5.16667 50,5.875 50,6.75 M49.5,6.64062 C49.5,5.79688 49.3073,5.18229 48.9219,4.79688 C48.6094,4.45312 48.1771,4.28125 47.625,4.28125 C47.0312,4.28125 46.5312,4.45833 46.125,4.8125 C45.75,5.14583 45.526,5.75521 45.4531,6.64062 L49.5,6.64062 M53.7969,1.98438 L54.3594,1.98438 L51.5625,11.0156 L51,11.0156 L53.7969,1.98438 M59.8906,4.28125 L59.8906,4.79688 C59.599,4.61979 59.3542,4.5 59.1562,4.4375 C58.8229,4.33333 58.5052,4.28125 58.2031,4.28125 C57.3385,4.28125 56.7188,4.5026 56.3438,4.94531 C55.9688,5.38802 55.7812,6.07292 55.7812,7 C55.7812,7.9375 55.9688,8.6276 56.3438,9.07031 C56.7188,9.51302 57.3385,9.73438 58.2031,9.73438 C58.4948,9.73438 58.776,9.69271 59.0469,9.60938 C59.3385,9.53646 59.6198,9.42188 59.8906,9.26562 L59.8906,9.76562 C59.6198,9.90104 59.3385,10 59.0469,10.0625 C58.7448,10.125 58.4479,10.1562 58.1562,10.1562 C57.2812,10.1562 56.5833,9.91667 56.0625,9.4375 C55.5417,8.95833 55.2812,8.14323 55.2812,6.99219 C55.2812,5.84115 55.5417,5.02604 56.0625,4.54688 C56.5833,4.07812 57.2812,3.84375 58.1562,3.84375 C58.4479,3.84375 58.7552,3.88542 59.0781,3.96875 C59.401,4.04167 59.6719,4.14583 59.8906,4.28125 M66.1562,5.29688 C66.3438,4.80729 66.6354,4.44271 67.0312,4.20312 C67.4167,3.96354 67.8698,3.84375 68.3906,3.84375 C68.9115,3.84375 69.3281,4.02604 69.6406,4.39062 C69.9635,4.75521 70.125,5.41667 70.125,6.375 L70.125,10 L69.6406,10 L69.6406,6.40625 C69.6406,5.57292 69.526,5.01042 69.2969,4.71875 C69.0677,4.42708 68.7604,4.28125 68.375,4.28125 C67.8229,4.28125 67.3385,4.44792 66.9219,4.78125 C66.4531,5.15625 66.2188,5.76042 66.2188,6.59375 L66.2188,10 L65.7344,10 L65.7344,6.40625 C65.7344,5.60417 65.6224,5.04948 65.3984,4.74219 C65.1745,4.4349 64.8646,4.28125 64.4688,4.28125 C63.9167,4.28125 63.4323,4.45312 63.0156,4.79688 C62.5469,5.16146 62.3125,5.76042 62.3125,6.59375 L62.3125,10 L61.8281,10 L61.8281,3.98438 L62.3125,3.98438 L62.3125,5.10938 C62.4896,4.71354 62.7656,4.40104 63.1406,4.17188 C63.5052,3.95312 63.9583,3.84375 64.5,3.84375 C64.8542,3.84375 65.1927,3.95833 65.5156,4.1875 C65.7656,4.375 65.9792,4.74479 66.1562,5.29688 M76.5312,5.35938 L76.5312,1.64062 L77,1.64062 L77,10 L76.5312,10 L76.5312,8.64062 C76.3021,9.16146 76.0521,9.51562 75.7812,9.70312 C75.3854,10.0052 75.0052,10.1562 74.6406,10.1562 C73.9323,10.1562 73.3411,9.86719 72.8672,9.28906 C72.3932,8.71094 72.1562,7.94792 72.1562,7 C72.1562,6.05208 72.3932,5.28906 72.8672,4.71094 C73.3411,4.13281 73.9323,3.84375 74.6406,3.84375 C75.0052,3.84375 75.3854,3.98958 75.7812,4.28125 C76.0521,4.47917 76.3021,4.83854 76.5312,5.35938 M73.2969,4.90625 C72.8802,5.32292 72.6719,6.02083 72.6719,7 C72.6719,7.97917 72.8802,8.67708 73.2969,9.09375 C73.7135,9.51042 74.151,9.71875 74.6094,9.71875 C75.0573,9.71875 75.4896,9.51042 75.9062,9.09375 C76.3125,8.67708 76.5156,7.97917 76.5156,7 C76.5156,6.02083 76.3125,5.32292 75.9062,4.90625 C75.4896,4.48958 75.0573,4.28125 74.6094,4.28125 C74.151,4.28125 73.7135,4.48958 73.2969,4.90625 M83.8594,12.1719 L83.8594,12.5938 L78.1406,12.5938 L78.1406,12.1719 L83.8594,12.1719 M84.4531,3.98438 L84.9688,3.98438 L87,9.45312 L89.0469,3.98438 L89.5625,3.98438 L87.3281,10 L86.6875,10 L84.4531,3.98438 M96.1875,6.75 L96.1875,7.0625 L91.625,7.0625 C91.625,8.02083 91.8125,8.69792 92.1875,9.09375 C92.6042,9.52083 93.2188,9.73438 94.0312,9.73438 C94.25,9.73438 94.5365,9.6875 94.8906,9.59375 C95.2448,9.5 95.599,9.35938 95.9531,9.17188 L95.9531,9.6875 C95.599,9.84375 95.237,9.96094 94.8672,10.0391 C94.4974,10.1172 94.2031,10.1562 93.9844,10.1562 C93.0573,10.1562 92.3594,9.90625 91.8906,9.40625 C91.3802,8.875 91.125,8.09375 91.125,7.0625 C91.125,5.98958 91.3542,5.1875 91.8125,4.65625 C92.2917,4.11458 92.9583,3.84375 93.8125,3.84375 C94.5938,3.84375 95.1875,4.10417 95.5938,4.625 C95.9896,5.16667 96.1875,5.875 96.1875,6.75 M95.6875,6.64062 C95.6875,5.79688 95.4948,5.18229 95.1094,4.79688 C94.7969,4.45312 94.3646,4.28125 93.8125,4.28125 C93.2188,4.28125 92.7188,4.45833 92.3125,4.8125 C91.9375,5.14583 91.7135,5.75521 91.6406,6.64062 L95.6875,6.64062 M98.2656,1.64062 L98.75,1.64062 L98.75,10 L98.2656,10 L98.2656,1.64062"/>
</g>

<g fill="none" stroke="#000000" stroke-opacity="1" stroke-width="1" stroke-linecap="square" stroke-linejoin="bevel" transform="matrix(2,0,0,2,483.3,46)"
font-family="sans" font-size="11" font-weight="100" font-style="normal" 
>
</g>

<g fill="none" stroke="#000000" stroke-opacity="1" stroke-width="1" stroke-linecap="square" stroke-linejoin="bevel" transform="matrix(2,0,0,2,483.3,46)"
font-family="Sans Serif" font-size="9" font-weight="400" font-style="normal" 
>
</g>

<g fill="none" stroke="#000000" stroke-opacity="1" stroke-width="1" stroke-linecap="square" stroke-linejoin="bevel" transform="matrix(2,0,0,2,0.0024,150)"
font-family="Sans Serif" font-size="9" font-weight="400" font-style="normal" 
>
</g>

<g fill="#000000" fill-opacity="1" stroke="#000000" stroke-opacity="1" stroke-width="1" stroke-linecap="square" stroke-linejoin="round" transform="matrix(2,0,0,2,0.0024,150)"
font-family="Sans Serif" font-size="9" font-weight="400" font-style="normal" 
>
<path vector-effect="none" fill-rule="evenodd" d="M345.75,-26.139 L345.367,-22.625 L355.79,-25.046 L346.133,-29.653 L345.75,-26.139"/>
</g>

<g fill="none" stroke="#000000" stroke-opacity="1" stroke-width="1" stroke-linecap="square" stroke-linejoin="bevel" transform="matrix(2,0,0,2,0.0024,150)"
font-family="Sans Serif" font-size="9" font-weight="400" font-style="normal" 
>
</g>

<g fill="none" stroke="#000000" stroke-opacity="1" stroke-width="1" stroke-linecap="square" stroke-linejoin="bevel" transform="matrix(2,0,0,2,0.0024,150)"
font-family="Sans Serif" font-size="9" font-weight="400" font-style="normal" 
>
</g>

<g fill="none" stroke="#000000" stroke-opacity="1" stroke-width="1" stroke-linecap="square" stroke-linejoin="bevel" transform="matrix(2,0,0,2,0.0024,150)"
font-family="Sans Serif" font-size="9" font-weight="400" font-style="normal" 
>
</g>

<g fill="none" stroke="#000000" stroke-opacity="1" stroke-width="1" stroke-linecap="square" stroke-linejoin="bevel" transform="matrix(2,0,0,2,0.0024,150)"
font-family="Sans Serif" font-size="9" font-weight="400" font-style="normal" 
>
</g>

<g fill="none" stroke="#000000" stroke-opacity="1" stroke-width="1" stroke-linecap="square" stroke-linejoin="round" transform="matrix(2,0,0,2,0.0024,150)"
font-family="Sans Serif" font-size="9" font-weight="400" font-style="normal" 
>
<path vector-effect="none" fill-rule="evenodd" d="M226.95,-56.587 C231.59,-56.743 236.18,-56.882 240.68,-57 C402.43,-61.244 445.42,-58.741 609.78,-58.01 "/>
</g>

<g fill="none" stroke="#000000" stroke-opacity="1" stroke-width="1" stroke-linecap="square" stroke-linejoin="bevel" transform="matrix(2,0,0,2,0.0024,150)"
font-family="Sans Serif" font-size="9" font-weight="400" font-style="normal" 
>
</g>

<g fill="none" stroke="#000000" stroke-opacity="1" stroke-width="1" stroke-linecap="square" stroke-linejoin="bevel" transform="matrix(2,0,0,2,742.98,4)"
font-family="Sans Serif" font-size="9" font-weight="400" font-style="normal" 
>
</g>

<g fill="none" stroke="#000000" stroke-opacity="1" stroke-width="1" stroke-linecap="square" stroke-linejoin="bevel" transform="matrix(2,0,0,2,742.98,4)"
font-family="sans" font-size="11" font-weight="100" font-style="normal" 
>
</g>

<g fill="#000000" fill-opacity="1" stroke="#000000" stroke-opacity="1" stroke-width="1" stroke-linecap="square" stroke-linejoin="round" transform="matrix(2,0,0,2,742.98,4)"
font-family="sans" font-size="11" font-weight="100" font-style="normal" 
>
<path vector-effect="none" fill-rule="nonzero" d="M2.96875,1.98438 L3.53125,1.98438 L0.734375,11.0156 L0.171875,11.0156 L2.96875,1.98438 M9.28125,5.29688 C9.46875,4.80729 9.76042,4.44271 10.1562,4.20312 C10.5417,3.96354 10.9948,3.84375 11.5156,3.84375 C12.0365,3.84375 12.4531,4.02604 12.7656,4.39062 C13.0885,4.75521 13.25,5.41667 13.25,6.375 L13.25,10 L12.7656,10 L12.7656,6.40625 C12.7656,5.57292 12.651,5.01042 12.4219,4.71875 C12.1927,4.42708 11.8854,4.28125 11.5,4.28125 C10.9479,4.28125 10.4635,4.44792 10.0469,4.78125 C9.57812,5.15625 9.34375,5.76042 9.34375,6.59375 L9.34375,10 L8.85938,10 L8.85938,6.40625 C8.85938,5.60417 8.7474,5.04948 8.52344,4.74219 C8.29948,4.4349 7.98958,4.28125 7.59375,4.28125 C7.04167,4.28125 6.55729,4.45312 6.14062,4.79688 C5.67188,5.16146 5.4375,5.76042 5.4375,6.59375 L5.4375,10 L4.95312,10 L4.95312,3.98438 L5.4375,3.98438 L5.4375,5.10938 C5.61458,4.71354 5.89062,4.40104 6.26562,4.17188 C6.63021,3.95312 7.08333,3.84375 7.625,3.84375 C7.97917,3.84375 8.31771,3.95833 8.64062,4.1875 C8.89062,4.375 9.10417,4.74479 9.28125,5.29688 M17.6875,10.5625 C17.4688,11.0938 17.2344,11.4635 16.9844,11.6719 C16.651,11.9427 16.3281,12.0781 16.0156,12.0781 L15.2812,12.0781 L15.2812,11.6562 L15.9062,11.6562 C16.1667,11.6562 16.3958,11.5729 16.5938,11.4062 C16.8438,11.1875 17.0521,10.8698 17.2188,10.4531 L17.3906,10 L15,3.98438 L15.5312,3.98438 L17.6562,9.34375 L19.7969,3.98438 L20.3281,3.98438 L17.6875,10.5625 M22.6719,2.28125 L22.6719,3.98438 L24.7031,3.98438 L24.7031,4.40625 L22.6719,4.40625 L22.6719,8.01562 C22.6719,8.47396 22.7292,8.79688 22.8438,8.98438 C23.0938,9.38021 23.4531,9.57812 23.9219,9.57812 L24.7031,9.57812 L24.7031,10 L23.9375,10 C23.4479,10 23.0312,9.85677 22.6875,9.57031 C22.3438,9.28385 22.1719,8.76562 22.1719,8.01562 L22.1719,4.40625 L21.4531,4.40625 L21.4531,3.98438 L22.1719,3.98438 L22.1719,2.28125 L22.6719,2.28125 M26.4062,7.60938 L26.4062,3.98438 L26.8906,3.98438 L26.8906,7.57812 C26.8906,8.35938 27.0156,8.90885 27.2656,9.22656 C27.5156,9.54427 27.8854,9.70312 28.375,9.70312 C28.9479,9.70312 29.4375,9.53125 29.8438,9.1875 C30.25,8.84375 30.4531,8.24479 30.4531,7.39062 L30.4531,3.98438 L30.9375,3.98438 L30.9375,10 L30.4531,10 L30.4531,8.875 C30.276,9.23958 30.0417,9.51562 29.75,9.70312 C29.3333,9.99479 28.8698,10.1406 28.3594,10.1406 C27.7656,10.1406 27.2917,9.9375 26.9375,9.53125 C26.5833,9.13542 26.4062,8.49479 26.4062,7.60938 M36.7031,4.40625 C36.6198,4.36458 36.5104,4.33333 36.375,4.3125 C36.25,4.29167 36.099,4.28125 35.9219,4.28125 C35.3073,4.28125 34.8021,4.50521 34.4062,4.95312 C34.0833,5.31771 33.9219,5.94271 33.9219,6.82812 L33.9219,10 L33.4375,10 L33.4375,3.98438 L33.9219,3.98438 L33.9219,5.10938 C34.0885,4.78646 34.3177,4.51562 34.6094,4.29688 C35.0052,3.99479 35.474,3.84375 36.0156,3.84375 C36.1615,3.84375 36.2865,3.84896 36.3906,3.85938 C36.4948,3.85938 36.599,3.86979 36.7031,3.89062 L36.7031,4.40625 M38.4688,2.28125 L38.4688,3.98438 L40.5,3.98438 L40.5,4.40625 L38.4688,4.40625 L38.4688,8.01562 C38.4688,8.47396 38.526,8.79688 38.6406,8.98438 C38.8906,9.38021 39.25,9.57812 39.7188,9.57812 L40.5,9.57812 L40.5,10 L39.7344,10 C39.2448,10 38.8281,9.85677 38.4844,9.57031 C38.1406,9.28385 37.9688,8.76562 37.9688,8.01562 L37.9688,4.40625 L37.25,4.40625 L37.25,3.98438 L37.9688,3.98438 L37.9688,2.28125 L38.4688,2.28125 M42.2656,1.64062 L42.75,1.64062 L42.75,10 L42.2656,10 L42.2656,1.64062 M50,6.75 L50,7.0625 L45.4375,7.0625 C45.4375,8.02083 45.625,8.69792 46,9.09375 C46.4167,9.52083 47.0312,9.73438 47.8438,9.73438 C48.0625,9.73438 48.349,9.6875 48.7031,9.59375 C49.0573,9.5 49.4115,9.35938 49.7656,9.17188 L49.7656,9.6875 C49.4115,9.84375 49.0495,9.96094 48.6797,10.0391 C48.3099,10.1172 48.0156,10.1562 47.7969,10.1562 C46.8698,10.1562 46.1719,9.90625 45.7031,9.40625 C45.1927,8.875 44.9375,8.09375 44.9375,7.0625 C44.9375,5.98958 45.1667,5.1875 45.625,4.65625 C46.1042,4.11458 46.7708,3.84375 47.625,3.84375 C48.4062,3.84375 49,4.10417 49.4062,4.625 C49.8021,5.16667 50,5.875 50,6.75 M49.5,6.64062 C49.5,5.79688 49.3073,5.18229 48.9219,4.79688 C48.6094,4.45312 48.1771,4.28125 47.625,4.28125 C47.0312,4.28125 46.5312,4.45833 46.125,4.8125 C45.75,5.14583 45.526,5.75521 45.4531,6.64062 L49.5,6.64062 M53.7969,1.98438 L54.3594,1.98438 L51.5625,11.0156 L51,11.0156 L53.7969,1.98438 M59.8906,4.28125 L59.8906,4.79688 C59.599,4.61979 59.3542,4.5 59.1562,4.4375 C58.8229,4.33333 58.5052,4.28125 58.2031,4.28125 C57.3385,4.28125 56.7188,4.5026 56.3438,4.94531 C55.9688,5.38802 55.7812,6.07292 55.7812,7 C55.7812,7.9375 55.9688,8.6276 56.3438,9.07031 C56.7188,9.51302 57.3385,9.73438 58.2031,9.73438 C58.4948,9.73438 58.776,9.69271 59.0469,9.60938 C59.3385,9.53646 59.6198,9.42188 59.8906,9.26562 L59.8906,9.76562 C59.6198,9.90104 59.3385,10 59.0469,10.0625 C58.7448,10.125 58.4479,10.1562 58.1562,10.1562 C57.2812,10.1562 56.5833,9.91667 56.0625,9.4375 C55.5417,8.95833 55.2812,8.14323 55.2812,6.99219 C55.2812,5.84115 55.5417,5.02604 56.0625,4.54688 C56.5833,4.07812 57.2812,3.84375 58.1562,3.84375 C58.4479,3.84375 58.7552,3.88542 59.0781,3.96875 C59.401,4.04167 59.6719,4.14583 59.8906,4.28125 M66.1562,5.29688 C66.3438,4.80729 66.6354,4.44271 67.0312,4.20312 C67.4167,3.96354 67.8698,3.84375 68.3906,3.84375 C68.9115,3.84375 69.3281,4.02604 69.6406,4.39062 C69.9635,4.75521 70.125,5.41667 70.125,6.375 L70.125,10 L69.6406,10 L69.6406,6.40625 C69.6406,5.57292 69.526,5.01042 69.2969,4.71875 C69.0677,4.42708 68.7604,4.28125 68.375,4.28125 C67.8229,4.28125 67.3385,4.44792 66.9219,4.78125 C66.4531,5.15625 66.2188,5.76042 66.2188,6.59375 L66.2188,10 L65.7344,10 L65.7344,6.40625 C65.7344,5.60417 65.6224,5.04948 65.3984,4.74219 C65.1745,4.4349 64.8646,4.28125 64.4688,4.28125 C63.9167,4.28125 63.4323,4.45312 63.0156,4.79688 C62.5469,5.16146 62.3125,5.76042 62.3125,6.59375 L62.3125,10 L61.8281,10 L61.8281,3.98438 L62.3125,3.98438 L62.3125,5.10938 C62.4896,4.71354 62.7656,4.40104 63.1406,4.17188 C63.5052,3.95312 63.9583,3.84375 64.5,3.84375 C64.8542,3.84375 65.1927,3.95833 65.5156,4.1875 C65.7656,4.375 65.9792,4.74479 66.1562,5.29688 M76.5312,5.35938 L76.5312,1.64062 L77,1.64062 L77,10 L76.5312,10 L76.5312,8.64062 C76.3021,9.16146 76.0521,9.51562 75.7812,9.70312 C75.3854,10.0052 75.0052,10.1562 74.6406,10.1562 C73.9323,10.1562 73.3411,9.86719 72.8672,9.28906 C72.3932,8.71094 72.1562,7.94792 72.1562,7 C72.1562,6.05208 72.3932,5.28906 72.8672,4.71094 C73.3411,4.13281 73.9323,3.84375 74.6406,3.84375 C75.0052,3.84375 75.3854,3.98958 75.7812,4.28125 C76.0521,4.47917 76.3021,4.83854 76.5312,5.35938 M73.2969,4.90625 C72.8802,5.32292 72.6719,6.02083 72.6719,7 C72.6719,7.97917 72.8802,8.67708 73.2969,9.09375 C73.7135,9.51042 74.151,9.71875 74.6094,9.71875 C75.0573,9.71875 75.4896,9.51042 75.9062,9.09375 C76.3125,8.67708 76.5156,7.97917 76.5156,7 C76.5156,6.02083 76.3125,5.32292 75.9062,4.90625 C75.4896,4.48958 75.0573,4.28125 74.6094,4.28125 C74.151,4.28125 73.7135,4.48958 73.2969,4.90625 M83.8594,12.1719 L83.8594,12.5938 L78.1406,12.5938 L78.1406,12.1719 L83.8594,12.1719 M84.4531,3.98438 L84.9688,3.98438 L87,9.45312 L89.0469,3.98438 L89.5625,3.98438 L87.3281,10 L86.6875,10 L84.4531,3.98438 M96.1875,6.75 L96.1875,7.0625 L91.625,7.0625 C91.625,8.02083 91.8125,8.69792 92.1875,9.09375 C92.6042,9.52083 93.2188,9.73438 94.0312,9.73438 C94.25,9.73438 94.5365,9.6875 94.8906,9.59375 C95.2448,9.5 95.599,9.35938 95.9531,9.17188 L95.9531,9.6875 C95.599,9.84375 95.237,9.96094 94.8672,10.0391 C94.4974,10.1172 94.2031,10.1562 93.9844,10.1562 C93.0573,10.1562 92.3594,9.90625 91.8906,9.40625 C91.3802,8.875 91.125,8.09375 91.125,7.0625 C91.125,5.98958 91.3542,5.1875 91.8125,4.65625 C92.2917,4.11458 92.9583,3.84375 93.8125,3.84375 C94.5938,3.84375 95.1875,4.10417 95.5938,4.625 C95.9896,5.16667 96.1875,5.875 96.1875,6.75 M95.6875,6.64062 C95.6875,5.79688 95.4948,5.18229 95.1094,4.79688 C94.7969,4.45312 94.3646,4.28125 93.8125,4.28125 C93.2188,4.28125 92.7188,4.45833 92.3125,4.8125 C91.9375,5.14583 91.7135,5.75521 91.6406,6.64062 L95.6875,6.64062 M98.2656,1.64062 L98.75,1.64062 L98.75,10 L98.2656,10 L98.2656,1.64062"/>
</g>

<g fill="none" stroke="#000000" stroke-opacity="1" stroke-width="1" stroke-linecap="square" stroke-linejoin="bevel" transform="matrix(2,0,0,2,742.98,4)"
font-family="sans" font-size="11" font-weight="100" font-style="normal" 
>
</g>

<g fill="none" stroke="#000000" stroke-opacity="1" stroke-width="1" stroke-linecap="square" stroke-linejoin="bevel" transform="matrix(2,0,0,2,742.98,4)"
font-family="Sans Serif" font-size="9" font-weight="400" font-style="normal" 
>
</g>

<g fill="none" stroke="#000000" stroke-opacity="1" stroke-width="1" stroke-linecap="square" stroke-linejoin="bevel" transform="matrix(2,0,0,2,0.0024,150)"
font-family="Sans Serif" font-size="9" font-weight="400" font-style="normal" 
>
</g>

<g fill="#000000" fill-opacity="1" stroke="#000000" stroke-opacity="1" stroke-width="1" stroke-linecap="square" stroke-linejoin="round" transform="matrix(2,0,0,2,0.0024,150)"
font-family="Sans Serif" font-size="9" font-weight="400" font-style="normal" 
>
<path vector-effect="none" fill-rule="evenodd" d="M609.78,-58.01 L609.765,-54.342 L620.26,-57.967 L609.795,-61.678 L609.78,-58.01"/>
</g>

<g fill="none" stroke="#000000" stroke-opacity="1" stroke-width="1" stroke-linecap="square" stroke-linejoin="bevel" transform="matrix(2,0,0,2,0.0024,150)"
font-family="Sans Serif" font-size="9" font-weight="400" font-style="normal" 
>
</g>

<g fill="none" stroke="#000000" stroke-opacity="1" stroke-width="1" stroke-linecap="square" stroke-linejoin="bevel" transform="matrix(1,0,0,1,0,0)"
font-family="Sans Serif" font-size="9" font-weight="400" font-style="normal" 
>
</g>
</g>
</svg>
